<svg width="69" height="68" viewBox="0 0 69 68" fill="none" xmlns="http://www.w3.org/2000/svg">
<g id="Union">
<mask id="path-1-outside-1_151_450" maskUnits="userSpaceOnUse" x="0.75" y="0" width="68" height="68" fill="black">
<rect fill="white" x="0.75" width="68" height="68"/>
<path fill-rule="evenodd" clip-rule="evenodd" d="M45.25 22.5C45.25 32.165 37.415 40 27.75 40C18.085 40 10.25 32.165 10.25 22.5C10.25 12.835 18.085 5 27.75 5C37.415 5 45.25 12.835 45.25 22.5ZM63.75 12.5C63.75 16.6421 60.3921 20 56.25 20C52.1079 20 48.75 16.6421 48.75 12.5C48.75 8.35786 52.1079 5 56.25 5C60.3921 5 63.75 8.35786 63.75 12.5ZM15.75 63C21.2728 63 25.75 58.5228 25.75 53C25.75 47.4772 21.2728 43 15.75 43C10.2272 43 5.75 47.4772 5.75 53C5.75 58.5228 10.2272 63 15.75 63Z"/>
</mask>
<path fill-rule="evenodd" clip-rule="evenodd" d="M45.25 22.5C45.25 32.165 37.415 40 27.75 40C18.085 40 10.25 32.165 10.25 22.5C10.25 12.835 18.085 5 27.75 5C37.415 5 45.25 12.835 45.25 22.5ZM63.75 12.5C63.75 16.6421 60.3921 20 56.25 20C52.1079 20 48.75 16.6421 48.75 12.5C48.75 8.35786 52.1079 5 56.25 5C60.3921 5 63.75 8.35786 63.75 12.5ZM15.75 63C21.2728 63 25.75 58.5228 25.75 53C25.75 47.4772 21.2728 43 15.75 43C10.2272 43 5.75 47.4772 5.75 53C5.75 58.5228 10.2272 63 15.75 63Z" fill="#72CC80"/>
<path d="M27.75 45C40.1764 45 50.25 34.9264 50.25 22.5H40.25C40.25 29.4036 34.6536 35 27.75 35V45ZM5.25 22.5C5.25 34.9264 15.3236 45 27.75 45V35C20.8464 35 15.25 29.4036 15.25 22.5H5.25ZM27.75 0C15.3236 0 5.25 10.0736 5.25 22.5H15.25C15.25 15.5964 20.8464 10 27.75 10V0ZM50.25 22.5C50.25 10.0736 40.1764 0 27.75 0V10C34.6536 10 40.25 15.5964 40.25 22.5H50.25ZM56.25 25C63.1536 25 68.75 19.4036 68.75 12.5H58.75C58.75 13.8807 57.6307 15 56.25 15V25ZM43.75 12.5C43.75 19.4036 49.3464 25 56.25 25V15C54.8693 15 53.75 13.8807 53.75 12.5H43.75ZM56.25 0C49.3464 0 43.75 5.59644 43.75 12.5H53.75C53.75 11.1193 54.8693 10 56.25 10V0ZM68.75 12.5C68.75 5.59644 63.1536 0 56.25 0V10C57.6307 10 58.75 11.1193 58.75 12.5H68.75ZM20.75 53C20.75 55.7614 18.5114 58 15.75 58V68C24.0343 68 30.75 61.2843 30.75 53H20.75ZM15.75 48C18.5114 48 20.75 50.2386 20.75 53H30.75C30.75 44.7157 24.0343 38 15.75 38V48ZM10.75 53C10.75 50.2386 12.9886 48 15.75 48V38C7.46573 38 0.75 44.7157 0.75 53H10.75ZM15.75 58C12.9886 58 10.75 55.7614 10.75 53H0.75C0.75 61.2843 7.46573 68 15.75 68V58Z" fill="white" mask="url(#path-1-outside-1_151_450)"/>
</g>
</svg>
