<svg width="69" height="68" viewBox="0 0 69 68" fill="none" xmlns="http://www.w3.org/2000/svg">
<g id="Union">
<mask id="path-1-outside-1_151_474" maskUnits="userSpaceOnUse" x="0.25" y="0" width="68" height="68" fill="black">
<rect fill="white" x="0.25" width="68" height="68"/>
<path fill-rule="evenodd" clip-rule="evenodd" d="M44.75 22.5C44.75 32.165 36.915 40 27.25 40C17.585 40 9.75 32.165 9.75 22.5C9.75 12.835 17.585 5 27.25 5C36.915 5 44.75 12.835 44.75 22.5ZM63.25 12.5C63.25 16.6421 59.8921 20 55.75 20C51.6079 20 48.25 16.6421 48.25 12.5C48.25 8.35786 51.6079 5 55.75 5C59.8921 5 63.25 8.35786 63.25 12.5ZM15.25 63C20.7728 63 25.25 58.5228 25.25 53C25.25 47.4772 20.7728 43 15.25 43C9.72715 43 5.25 47.4772 5.25 53C5.25 58.5228 9.72715 63 15.25 63Z"/>
</mask>
<path fill-rule="evenodd" clip-rule="evenodd" d="M44.75 22.5C44.75 32.165 36.915 40 27.25 40C17.585 40 9.75 32.165 9.75 22.5C9.75 12.835 17.585 5 27.25 5C36.915 5 44.75 12.835 44.75 22.5ZM63.25 12.5C63.25 16.6421 59.8921 20 55.75 20C51.6079 20 48.25 16.6421 48.25 12.5C48.25 8.35786 51.6079 5 55.75 5C59.8921 5 63.25 8.35786 63.25 12.5ZM15.25 63C20.7728 63 25.25 58.5228 25.25 53C25.25 47.4772 20.7728 43 15.25 43C9.72715 43 5.25 47.4772 5.25 53C5.25 58.5228 9.72715 63 15.25 63Z" fill="#B14F78"/>
<path d="M27.25 45C39.6764 45 49.75 34.9264 49.75 22.5H39.75C39.75 29.4036 34.1536 35 27.25 35V45ZM4.75 22.5C4.75 34.9264 14.8236 45 27.25 45V35C20.3464 35 14.75 29.4036 14.75 22.5H4.75ZM27.25 0C14.8236 0 4.75 10.0736 4.75 22.5H14.75C14.75 15.5964 20.3464 10 27.25 10V0ZM49.75 22.5C49.75 10.0736 39.6764 0 27.25 0V10C34.1536 10 39.75 15.5964 39.75 22.5H49.75ZM55.75 25C62.6536 25 68.25 19.4036 68.25 12.5H58.25C58.25 13.8807 57.1307 15 55.75 15V25ZM43.25 12.5C43.25 19.4036 48.8464 25 55.75 25V15C54.3693 15 53.25 13.8807 53.25 12.5H43.25ZM55.75 0C48.8464 0 43.25 5.59644 43.25 12.5H53.25C53.25 11.1193 54.3693 10 55.75 10V0ZM68.25 12.5C68.25 5.59644 62.6536 0 55.75 0V10C57.1307 10 58.25 11.1193 58.25 12.5H68.25ZM20.25 53C20.25 55.7614 18.0114 58 15.25 58V68C23.5343 68 30.25 61.2843 30.25 53H20.25ZM15.25 48C18.0114 48 20.25 50.2386 20.25 53H30.25C30.25 44.7157 23.5343 38 15.25 38V48ZM10.25 53C10.25 50.2386 12.4886 48 15.25 48V38C6.96573 38 0.25 44.7157 0.25 53H10.25ZM15.25 58C12.4886 58 10.25 55.7614 10.25 53H0.25C0.25 61.2843 6.96573 68 15.25 68V58Z" fill="white" mask="url(#path-1-outside-1_151_474)"/>
</g>
</svg>
