<svg width="68" height="68" viewBox="0 0 68 68" fill="none" xmlns="http://www.w3.org/2000/svg">
<g id="Union">
<mask id="path-1-outside-1_151_423" maskUnits="userSpaceOnUse" x="0" y="0" width="68" height="68" fill="black">
<rect fill="white" width="68" height="68"/>
<path fill-rule="evenodd" clip-rule="evenodd" d="M44.5 22.5C44.5 32.165 36.665 40 27 40C17.335 40 9.5 32.165 9.5 22.5C9.5 12.835 17.335 5 27 5C36.665 5 44.5 12.835 44.5 22.5ZM63 12.5C63 16.6421 59.6421 20 55.5 20C51.3579 20 48 16.6421 48 12.5C48 8.35786 51.3579 5 55.5 5C59.6421 5 63 8.35786 63 12.5ZM15 63C20.5228 63 25 58.5228 25 53C25 47.4772 20.5228 43 15 43C9.47715 43 5 47.4772 5 53C5 58.5228 9.47715 63 15 63Z"/>
</mask>
<path fill-rule="evenodd" clip-rule="evenodd" d="M44.5 22.5C44.5 32.165 36.665 40 27 40C17.335 40 9.5 32.165 9.5 22.5C9.5 12.835 17.335 5 27 5C36.665 5 44.5 12.835 44.5 22.5ZM63 12.5C63 16.6421 59.6421 20 55.5 20C51.3579 20 48 16.6421 48 12.5C48 8.35786 51.3579 5 55.5 5C59.6421 5 63 8.35786 63 12.5ZM15 63C20.5228 63 25 58.5228 25 53C25 47.4772 20.5228 43 15 43C9.47715 43 5 47.4772 5 53C5 58.5228 9.47715 63 15 63Z" fill="#FF849C"/>
<path d="M27 45C39.4264 45 49.5 34.9264 49.5 22.5H39.5C39.5 29.4036 33.9036 35 27 35V45ZM4.5 22.5C4.5 34.9264 14.5736 45 27 45V35C20.0964 35 14.5 29.4036 14.5 22.5H4.5ZM27 0C14.5736 0 4.5 10.0736 4.5 22.5H14.5C14.5 15.5964 20.0964 10 27 10V0ZM49.5 22.5C49.5 10.0736 39.4264 0 27 0V10C33.9036 10 39.5 15.5964 39.5 22.5H49.5ZM55.5 25C62.4036 25 68 19.4036 68 12.5H58C58 13.8807 56.8807 15 55.5 15V25ZM43 12.5C43 19.4036 48.5964 25 55.5 25V15C54.1193 15 53 13.8807 53 12.5H43ZM55.5 0C48.5964 0 43 5.59644 43 12.5H53C53 11.1193 54.1193 10 55.5 10V0ZM68 12.5C68 5.59644 62.4036 0 55.5 0V10C56.8807 10 58 11.1193 58 12.5H68ZM20 53C20 55.7614 17.7614 58 15 58V68C23.2843 68 30 61.2843 30 53H20ZM15 48C17.7614 48 20 50.2386 20 53H30C30 44.7157 23.2843 38 15 38V48ZM10 53C10 50.2386 12.2386 48 15 48V38C6.71573 38 0 44.7157 0 53H10ZM15 58C12.2386 58 10 55.7614 10 53H0C0 61.2843 6.71573 68 15 68V58Z" fill="white" mask="url(#path-1-outside-1_151_423)"/>
</g>
</svg>
