<svg width="69" height="68" viewBox="0 0 69 68" fill="none" xmlns="http://www.w3.org/2000/svg">
<g id="Union">
<mask id="path-1-outside-1_151_397" maskUnits="userSpaceOnUse" x="0.5" y="0" width="68" height="68" fill="black">
<rect fill="white" x="0.5" width="68" height="68"/>
<path fill-rule="evenodd" clip-rule="evenodd" d="M45 22.5C45 32.165 37.165 40 27.5 40C17.835 40 10 32.165 10 22.5C10 12.835 17.835 5 27.5 5C37.165 5 45 12.835 45 22.5ZM63.5 12.5C63.5 16.6421 60.1421 20 56 20C51.8579 20 48.5 16.6421 48.5 12.5C48.5 8.35786 51.8579 5 56 5C60.1421 5 63.5 8.35786 63.5 12.5ZM15.5 63C21.0228 63 25.5 58.5228 25.5 53C25.5 47.4772 21.0228 43 15.5 43C9.97715 43 5.5 47.4772 5.5 53C5.5 58.5228 9.97715 63 15.5 63Z"/>
</mask>
<path fill-rule="evenodd" clip-rule="evenodd" d="M45 22.5C45 32.165 37.165 40 27.5 40C17.835 40 10 32.165 10 22.5C10 12.835 17.835 5 27.5 5C37.165 5 45 12.835 45 22.5ZM63.5 12.5C63.5 16.6421 60.1421 20 56 20C51.8579 20 48.5 16.6421 48.5 12.5C48.5 8.35786 51.8579 5 56 5C60.1421 5 63.5 8.35786 63.5 12.5ZM15.5 63C21.0228 63 25.5 58.5228 25.5 53C25.5 47.4772 21.0228 43 15.5 43C9.97715 43 5.5 47.4772 5.5 53C5.5 58.5228 9.97715 63 15.5 63Z" fill="#FFDA83"/>
<path d="M27.5 45C39.9264 45 50 34.9264 50 22.5H40C40 29.4036 34.4036 35 27.5 35V45ZM5 22.5C5 34.9264 15.0736 45 27.5 45V35C20.5964 35 15 29.4036 15 22.5H5ZM27.5 0C15.0736 0 5 10.0736 5 22.5H15C15 15.5964 20.5964 10 27.5 10V0ZM50 22.5C50 10.0736 39.9264 0 27.5 0V10C34.4036 10 40 15.5964 40 22.5H50ZM56 25C62.9036 25 68.5 19.4036 68.5 12.5H58.5C58.5 13.8807 57.3807 15 56 15V25ZM43.5 12.5C43.5 19.4036 49.0964 25 56 25V15C54.6193 15 53.5 13.8807 53.5 12.5H43.5ZM56 0C49.0964 0 43.5 5.59644 43.5 12.5H53.5C53.5 11.1193 54.6193 10 56 10V0ZM68.5 12.5C68.5 5.59644 62.9036 0 56 0V10C57.3807 10 58.5 11.1193 58.5 12.5H68.5ZM20.5 53C20.5 55.7614 18.2614 58 15.5 58V68C23.7843 68 30.5 61.2843 30.5 53H20.5ZM15.5 48C18.2614 48 20.5 50.2386 20.5 53H30.5C30.5 44.7157 23.7843 38 15.5 38V48ZM10.5 53C10.5 50.2386 12.7386 48 15.5 48V38C7.21573 38 0.5 44.7157 0.5 53H10.5ZM15.5 58C12.7386 58 10.5 55.7614 10.5 53H0.5C0.5 61.2843 7.21573 68 15.5 68V58Z" fill="white" mask="url(#path-1-outside-1_151_397)"/>
</g>
</svg>
