<svg width="80" height="67" viewBox="0 0 80 67" fill="none" xmlns="http://www.w3.org/2000/svg">
<g id="uuid-2a844153-bee6-4ec1-b1c5-8f62c77d76f2" clip-path="url(#clip0_151_113)">
<path id="Vector" d="M79.8654 38.8173C79.8624 38.193 79.3537 37.6893 78.7282 37.6893H78.7221C78.094 37.6923 77.5875 38.2024 77.5906 38.8286L77.6258 45.7451L63.0851 45.6714C63.2136 44.1073 62.8788 42.4911 62.0104 41.0453C60.9975 39.3595 61.5494 37.1663 63.2409 36.1565L69.5582 32.3852C71.0412 31.4998 72.0897 30.0918 72.5105 28.4204C72.9309 26.749 72.6735 25.0141 71.7853 23.5358L70.0582 20.6608L73.8585 18.4298C74.3953 18.1146 74.5776 17.4276 74.2679 16.8888L67.4255 4.99774C66.2602 2.97263 64.3705 1.5325 62.1048 0.942616C59.839 0.352354 57.4841 0.687541 55.4743 1.88583L0.553458 34.6272C0.209632 34.8324 -0.000378568 35.2024 5.12327e-07 35.6018C0.000379593 36.0012 0.211906 36.3708 0.556112 36.5749L11.9805 43.3455C12.1598 43.4517 12.3607 43.5046 12.5616 43.5046C12.7693 43.5046 12.9767 43.4479 13.1602 43.3349C13.2075 43.3058 17.9718 40.3689 25.9412 35.6369C33.0767 31.3997 38.656 37.6178 38.8883 37.8827C39.2477 38.2965 39.852 38.3955 40.3251 38.1174L68.0988 21.8115L69.8346 24.7008C70.4108 25.6595 70.5776 26.7845 70.3046 27.8687C70.0317 28.9525 69.352 29.8658 68.3899 30.4398L62.0725 34.2112C59.3052 35.8633 58.4023 39.4513 60.0592 42.2099C61.6282 44.8219 60.773 48.2195 58.1528 49.7836C55.5326 51.3477 52.1247 50.4955 50.5553 47.8836C49.7077 46.4725 48.3597 45.4745 46.7588 45.0743C45.158 44.6738 43.4972 44.919 42.0821 45.764L34.5012 50.2896C33.5926 50.8326 32.5251 50.9902 31.497 50.7325C30.469 50.4751 29.6028 49.8346 29.0584 48.928L24.9223 42.0429C24.5993 41.5056 23.9014 41.331 23.3623 41.6529C22.8237 41.9745 22.6485 42.6706 22.9711 43.2079L26.6577 49.3445L23.1061 51.4648L19.4195 45.3283C19.0966 44.7913 18.3983 44.616 17.8596 44.9383C17.3209 45.2599 17.1458 45.9559 17.4684 46.4933L21.7391 53.6025C21.8942 53.8606 22.1455 54.0465 22.4382 54.1195C22.5295 54.1425 22.6224 54.1535 22.7149 54.1535C22.9188 54.1535 23.1213 54.0987 23.2994 53.9925L27.9667 51.2063C28.7699 52.0426 29.7904 52.6431 30.9443 52.9318C31.4515 53.0587 31.9648 53.1215 32.4747 53.1215C33.5899 53.1215 34.6889 52.821 35.6707 52.2349L43.2516 47.7093C44.1458 47.1758 45.1947 47.0212 46.2061 47.2736C47.2171 47.5265 48.0689 48.1568 48.6046 49.0486C49.5864 50.6829 51.0792 51.8257 52.7581 52.4027C53.2373 55.6556 55.9989 58.1111 59.3875 58.1304L77.6903 58.2343L77.7259 65.2139C77.7289 65.8382 78.2377 66.3419 78.8631 66.3419H78.8692C79.4973 66.3389 80.0038 65.8287 80.0008 65.2026L79.8662 38.8169L79.8654 38.8173ZM39.927 35.7201C37.9649 33.9138 31.9807 29.412 24.7775 33.6889C18.393 37.4799 14.0586 40.1229 12.5514 41.046L3.35789 35.5973L56.6414 3.83157C58.1236 2.94883 59.8595 2.70169 61.5301 3.13626C63.2007 3.57121 64.5938 4.63308 65.4528 6.12611L71.7357 17.0452L39.927 35.7201ZM59.4004 55.8634C57.4258 55.8521 55.7696 54.5937 55.1824 52.8248C56.5925 52.8498 58.0255 52.5036 59.3219 51.7297C60.8462 50.8197 61.9387 49.4673 62.5509 47.9368L77.6379 48.0132L77.6785 55.9677L59.4004 55.8634Z" fill="url(#paint0_linear_151_113)"/>
</g>
<defs>
<linearGradient id="paint0_linear_151_113" x1="0" y1="10.1824" x2="80.0008" y2="10.1824" gradientUnits="userSpaceOnUse">
<stop stop-color="#B700C7"/>
<stop offset="0.46" stop-color="#DE3E63"/>
<stop offset="1" stop-color="#FF9440"/>
</linearGradient>
<clipPath id="clip0_151_113">
<rect width="80" height="65.6842" fill="white" transform="translate(0 0.657715)"/>
</clipPath>
</defs>
</svg>
