<svg width="78" height="79" viewBox="0 0 78 79" fill="none" xmlns="http://www.w3.org/2000/svg">
<g id="uuid-be6efcba-348e-4de9-9dc9-8771b6e9a7ed" clip-path="url(#clip0_151_109)">
<path id="Vector" d="M17.8657 29.3258C18.5613 29.3576 19.0997 29.9445 19.0678 30.6368L17.6164 62.2006C17.5853 62.8733 17.0275 63.3983 16.3575 63.3983C16.3382 63.3983 16.3184 63.3983 16.2991 63.397C15.6034 63.3652 15.065 62.7783 15.097 62.086L16.5483 30.5222C16.5803 29.8299 17.1746 29.2915 17.8657 29.3258ZM21.3918 23.9345C21.3918 23.2413 20.8273 22.6795 20.1308 22.6795H5.5206C3.86703 22.6795 2.52197 21.3408 2.52197 19.6952C2.52197 18.6661 3.04318 17.7236 3.9162 17.1735L16.3777 9.32116C16.743 9.09108 16.9645 8.69116 16.9645 8.26113V2.78443C20.1741 3.61522 27.8136 6.71375 29.2587 17.5274C31.1485 31.6684 35.675 37.9742 43.9349 37.9742C51.1133 37.9742 57.2618 33.9211 58.1491 28.8732H63.5167L65.9013 62.2324C65.9483 62.8934 66.5019 63.3983 67.1576 63.3983C67.1875 63.3983 67.2182 63.3974 67.2484 63.3949C67.9428 63.346 68.4661 62.7453 68.4165 62.0542L66.0492 28.9363C72.8115 29.5676 75.4843 34.7866 75.605 35.0309C75.824 35.476 76.272 35.7358 76.739 35.7358C76.9231 35.7358 77.111 35.6952 77.288 35.6099C77.9147 35.3078 78.1765 34.5569 77.8735 33.9332C77.7234 33.6245 74.0825 26.3632 64.6911 26.3632H56.9983C56.3018 26.3632 55.7373 26.9251 55.7373 27.6182C55.7373 31.7977 50.2222 35.4643 43.9349 35.4643C39.1213 35.4643 33.91 33.294 31.7584 17.1965C29.6933 1.74113 15.9834 0.0230788 15.8451 0.0076008C15.4891 -0.0329766 15.1314 0.0803891 14.8632 0.318834C14.5955 0.55686 14.4425 0.897375 14.4425 1.25462V7.57006L2.56737 15.053C0.959611 16.0658 0 17.801 0 19.6956C0 22.7251 2.47658 25.1898 5.5206 25.1898H20.1308C20.8273 25.1898 21.3918 24.6276 21.3918 23.9345ZM38.4197 28.8732H50.1768C50.8732 28.8732 51.4377 28.3114 51.4377 27.6182C51.4377 26.9251 50.8732 26.3632 50.1768 26.3632H38.4197C37.7233 26.3632 37.1588 26.9251 37.1588 27.6182C37.1588 28.3114 37.7233 28.8732 38.4197 28.8732ZM42.3385 45.8651C35.667 45.8651 29.8904 49.2041 25.6333 55.5217C22.4817 60.1985 21.2804 64.8185 21.2308 65.0126C21.0593 65.6836 21.467 66.3659 22.1417 66.5374C22.8142 66.7055 23.5018 66.3023 23.6746 65.6317C23.7187 65.4589 28.273 48.375 42.338 48.375C56.4031 48.375 59.688 64.8557 59.8237 65.5564C59.9389 66.158 60.4677 66.5767 61.0612 66.5767C61.1394 66.5767 61.2188 66.5692 61.2982 66.5541C61.9821 66.424 62.431 65.7672 62.3011 65.0862C62.2642 64.8942 58.4358 45.8647 42.338 45.8647L42.3385 45.8651ZM75.8097 62.306C75.6785 62.4478 62.4731 76.4897 41.758 76.4897C21.0429 76.4897 8.47047 62.5127 8.3057 62.3274C7.84628 61.8057 7.04976 61.7543 6.52645 62.2106C6.00272 62.6679 5.95018 63.4602 6.40917 63.9818C6.9493 64.5951 19.8832 78.9996 41.7584 78.9996C63.6336 78.9996 77.106 64.6143 77.6692 64.0019C78.1396 63.4907 78.1042 62.6984 77.5914 62.2299C77.0782 61.7618 76.2809 61.7961 75.8097 62.306Z" fill="url(#paint0_linear_151_109)"/>
</g>
<defs>
<linearGradient id="paint0_linear_151_109" x1="0" y1="11.4546" x2="78.0002" y2="11.4546" gradientUnits="userSpaceOnUse">
<stop stop-color="#B700C7"/>
<stop offset="0.46" stop-color="#DE3E63"/>
<stop offset="1" stop-color="#FF9440"/>
</linearGradient>
<clipPath id="clip0_151_109">
<rect width="78" height="79" fill="white"/>
</clipPath>
</defs>
</svg>
