<svg width="70" height="79" viewBox="0 0 70 79" fill="none" xmlns="http://www.w3.org/2000/svg">
<path id="Vector" d="M68.0702 34.2086C67.7793 32.9298 67.1036 31.7824 66.1308 30.9028C67.2223 29.4049 67.8179 27.6017 67.8179 25.7352C67.8179 20.8748 63.8415 16.9208 58.9537 16.9208C55.4431 16.9208 52.2497 19.044 50.8485 22.1885C46.609 20.0826 41.7277 19.6163 37.3129 20.92C36.7011 21.1008 36.3525 21.7406 36.5343 22.349C36.7166 22.957 37.3584 23.3052 37.9714 23.1232C42.0798 21.9096 46.6637 22.4585 50.5464 24.6296L63.8003 32.0441C65.0698 32.7544 65.8615 34.0397 65.917 35.4824C65.9682 36.8041 65.3919 37.9649 64.3358 38.6671L36.5258 57.1586C32.0861 60.1119 26.3082 60.2568 21.4485 57.5387L5.77243 48.7687C4.85011 48.2531 4.27567 47.3198 4.23484 46.2721C4.19785 45.3212 4.61086 44.4868 5.36752 43.9834L15.3232 37.3638C15.8537 37.011 15.9962 36.2973 15.6414 35.7694C15.2858 35.2422 14.5688 35.1009 14.0379 35.4529L11.1538 37.3707C10.223 36.4593 9.6952 35.2231 9.6952 33.9067C9.6952 31.2212 11.892 29.0368 14.5927 29.0368C14.6651 29.0368 14.7376 29.0437 14.81 29.0467C15.5169 33.7359 19.5946 37.3435 24.5044 37.3435C29.9101 37.3435 34.3079 32.9704 34.3079 27.5952C34.3079 22.2199 29.9101 17.8472 24.5044 17.8472C19.3869 17.8472 15.1752 21.7671 14.7403 26.7451C14.6909 26.7439 14.642 26.7382 14.5927 26.7382C10.6179 26.7382 7.38361 29.9543 7.38361 33.9067C7.38361 35.6851 8.03548 37.3665 9.20245 38.6683L4.08266 42.0725C2.66372 43.0161 1.85736 44.619 1.92479 46.3606C1.99683 48.2125 3.01123 49.8617 4.63898 50.772L20.315 59.5415C22.9872 61.0364 25.9029 61.78 28.7828 61.78C31.9628 61.78 35.0984 60.8732 37.8111 59.0695L65.6211 40.578C66.1813 40.2053 66.6605 39.7463 67.052 39.2249C68.8577 47.9849 66.3704 54.0341 64.3358 55.3868L36.5258 73.8783C32.0861 76.8316 26.3082 76.9764 21.4485 74.2583L5.77243 65.4884C3.57295 64.2582 2.31159 60.6632 2.31159 55.6251C2.31159 54.9903 1.79418 54.4758 1.1558 54.4758C0.517411 54.4758 0 54.9903 0 55.6251C0 61.6041 1.64739 65.8186 4.63937 67.492L20.3154 76.2615C22.9876 77.7564 25.9033 78.5 28.7832 78.5C31.9632 78.5 35.0988 77.5932 37.8115 75.7896L65.6215 57.2981C69.0226 55.0366 72.1394 46.1407 68.0702 34.2086ZM24.5048 20.1458C28.636 20.1458 31.9967 23.4876 31.9967 27.5952C31.9967 31.7028 28.6356 35.0449 24.5048 35.0449C20.374 35.0449 17.0129 31.7028 17.0129 27.5952C17.0129 23.4876 20.374 20.1458 24.5048 20.1458ZM58.9541 19.2194C62.5671 19.2194 65.5067 22.1425 65.5067 25.7352C65.5067 27.1465 65.0467 28.51 64.2037 29.6325L52.88 23.2979C53.8701 20.871 56.2903 19.2194 58.9541 19.2194ZM37.6427 13.9775C41.3794 13.9775 44.4195 10.954 44.4195 7.23835C44.4195 3.52266 41.3794 0.5 37.6427 0.5C33.906 0.5 30.8659 3.52304 30.8659 7.23874C30.8659 10.9544 33.906 13.9775 37.6427 13.9775ZM37.6427 2.79822C40.105 2.79822 42.108 4.78996 42.108 7.23835C42.108 9.68675 40.105 11.6789 37.6427 11.6789C35.1805 11.6789 33.1775 9.68713 33.1775 7.23835C33.1775 4.78958 35.1805 2.79822 37.6427 2.79822ZM21.3117 9.57833C22.5723 9.57833 23.5987 8.55813 23.5987 7.30425C23.5987 6.05036 22.5727 5.03054 21.3117 5.03054C20.0507 5.03054 19.0252 6.05036 19.0252 7.30425C19.0252 8.55813 20.0507 9.57833 21.3117 9.57833ZM21.3117 7.27973V7.32953C21.2982 7.32953 21.2871 7.31842 21.2871 7.30463L21.3117 7.27973ZM43.9314 35.5602C43.9314 34.258 42.8658 33.1984 41.5563 33.1984C40.2467 33.1984 39.1811 34.258 39.1811 35.5602C39.1811 36.8624 40.2467 37.922 41.5563 37.922C42.8658 37.922 43.9314 36.8624 43.9314 35.5602ZM41.4927 35.5602C41.4927 35.5253 41.5212 35.497 41.5563 35.497C41.5913 35.497 41.6198 35.5253 41.6198 35.5602C41.6198 35.6299 41.4927 35.6299 41.4927 35.5602Z" fill="url(#paint0_linear_151_118)"/>
<defs>
<linearGradient id="paint0_linear_151_118" x1="0" y1="11.81" x2="70" y2="11.81" gradientUnits="userSpaceOnUse">
<stop stop-color="#B700C7"/>
<stop offset="0.46" stop-color="#DE3E63"/>
<stop offset="1" stop-color="#FF9440"/>
</linearGradient>
</defs>
</svg>
