<svg width="1920" height="6760" viewBox="0 0 1920 6760" fill="none" xmlns="http://www.w3.org/2000/svg">
<g filter="url(#filter0_f_97_27)">
<ellipse cx="479.5" cy="1324" rx="304.5" ry="192" fill="#FFF4FB"/>
</g>
<g filter="url(#filter1_f_97_27)">
<circle cx="-63.5" cy="1075.5" r="336.5" fill="#FFF0F2" fill-opacity="0.78"/>
</g>
<g filter="url(#filter2_f_97_27)">
<ellipse cx="205.5" cy="2749" rx="304.5" ry="192" fill="#FFF4FB" fill-opacity="0.32"/>
</g>
<g filter="url(#filter3_f_97_27)">
<ellipse cx="205.5" cy="6341" rx="304.5" ry="192" fill="#FFF4FB" fill-opacity="0.32"/>
</g>
<g filter="url(#filter4_f_97_27)">
<ellipse cx="714.5" cy="2729.5" rx="384.5" ry="389.5" fill="#F2E9C7" fill-opacity="0.32"/>
</g>
<g filter="url(#filter5_f_97_27)">
<ellipse cx="714.5" cy="6270.5" rx="384.5" ry="389.5" fill="#F2E9C7" fill-opacity="0.32"/>
</g>
<g filter="url(#filter6_f_97_27)">
<ellipse cx="1541.5" cy="4167.5" rx="461.5" ry="288.5" fill="#FF5C00" fill-opacity="0.06"/>
</g>
<g filter="url(#filter7_f_97_27)">
<ellipse cx="1143" cy="4345" rx="342" ry="141" fill="#9E00FF" fill-opacity="0.08"/>
</g>
<g filter="url(#filter8_f_97_27)">
<ellipse cx="397" cy="4081" rx="342" ry="141" fill="#FFE600" fill-opacity="0.06"/>
</g>
<g filter="url(#filter9_f_97_27)">
<circle cx="1733.5" cy="2587.5" r="336.5" fill="#FFF0F2" fill-opacity="0.75"/>
</g>
<g filter="url(#filter10_f_97_27)">
<ellipse cx="1510" cy="6192.5" rx="560" ry="336.5" fill="#FFF0F2" fill-opacity="0.75"/>
</g>
<g filter="url(#filter11_f_97_27)">
<ellipse cx="1224.5" cy="601" rx="304.5" ry="192" fill="#FFF4FB" fill-opacity="0.32"/>
</g>
<g filter="url(#filter12_f_97_27)">
<circle cx="1733.5" cy="337.5" r="336.5" fill="#FFF0F2" fill-opacity="0.75"/>
</g>
<g filter="url(#filter13_f_97_27)">
<path d="M816 165C816 336.208 592.814 475 317.5 475C42.1861 475 -181 336.208 -181 165C-181 -6.20827 42.1861 -145 317.5 -145C592.814 -145 816 -6.20827 816 165Z" fill="#FCFBF1"/>
</g>
<circle cx="1423" cy="125" r="316" stroke="white" stroke-width="2"/>
<circle cx="1423" cy="125" r="377" stroke="white" stroke-width="2"/>
<circle cx="1423" cy="125" r="441" stroke="white" stroke-width="2"/>
<circle cx="1423" cy="125" r="510" stroke="white" stroke-width="2"/>
<circle cx="1423" cy="125" r="582" stroke="white" stroke-width="2"/>
<circle cx="1423" cy="125" r="655" stroke="white" stroke-width="2"/>
<path d="M948.302 1264C948.302 1438.55 810.692 1580 641 1580C471.308 1580 333.698 1438.55 333.698 1264C333.698 1089.45 471.308 948 641 948C810.692 948 948.302 1089.45 948.302 1264Z" stroke="white" stroke-width="2"/>
<path d="M1007.63 1264C1007.63 1472.24 843.457 1641 641 1641C438.543 1641 274.372 1472.24 274.372 1264C274.372 1055.76 438.543 887 641 887C843.457 887 1007.63 1055.76 1007.63 1264Z" stroke="white" stroke-width="2"/>
<path d="M1069.87 1264C1069.87 1507.58 877.833 1705 641 1705C404.167 1705 212.128 1507.58 212.128 1264C212.128 1020.42 404.167 823 641 823C877.833 823 1069.87 1020.42 1069.87 1264Z" stroke="white" stroke-width="2"/>
<path d="M1136.98 1264C1136.98 1545.69 914.895 1774 641 1774C367.105 1774 145.021 1545.69 145.021 1264C145.021 982.308 367.105 754 641 754C914.895 754 1136.98 982.308 1136.98 1264Z" stroke="white" stroke-width="2"/>
<path d="M1207 1264C1207 1585.46 953.569 1846 641 1846C328.431 1846 74.9969 1585.46 74.9969 1264C74.9969 942.544 328.431 682 641 682C953.569 682 1207 942.544 1207 1264Z" stroke="white" stroke-width="2"/>
<path d="M1278 1264C1278 1625.77 992.779 1919 641 1919C289.221 1919 4 1625.77 4 1264C4 902.227 289.221 609 641 609C992.779 609 1278 902.227 1278 1264Z" stroke="white" stroke-width="2"/>
<circle cx="153" cy="-135" r="316" stroke="white" stroke-width="2"/>
<circle cx="153" cy="-135" r="377" stroke="white" stroke-width="2"/>
<circle cx="153" cy="-135" r="441" stroke="white" stroke-width="2"/>
<circle cx="153" cy="-135" r="510" stroke="white" stroke-width="2"/>
<circle cx="153" cy="-135" r="582" stroke="white" stroke-width="2"/>
<circle cx="153" cy="-135" r="655" stroke="white" stroke-width="2"/>
<defs>
<filter id="filter0_f_97_27" x="-125" y="832" width="1209" height="984" filterUnits="userSpaceOnUse" color-interpolation-filters="sRGB">
<feFlood flood-opacity="0" result="BackgroundImageFix"/>
<feBlend mode="normal" in="SourceGraphic" in2="BackgroundImageFix" result="shape"/>
<feGaussianBlur stdDeviation="150" result="effect1_foregroundBlur_97_27"/>
</filter>
<filter id="filter1_f_97_27" x="-700" y="439" width="1273" height="1273" filterUnits="userSpaceOnUse" color-interpolation-filters="sRGB">
<feFlood flood-opacity="0" result="BackgroundImageFix"/>
<feBlend mode="normal" in="SourceGraphic" in2="BackgroundImageFix" result="shape"/>
<feGaussianBlur stdDeviation="150" result="effect1_foregroundBlur_97_27"/>
</filter>
<filter id="filter2_f_97_27" x="-399" y="2257" width="1209" height="984" filterUnits="userSpaceOnUse" color-interpolation-filters="sRGB">
<feFlood flood-opacity="0" result="BackgroundImageFix"/>
<feBlend mode="normal" in="SourceGraphic" in2="BackgroundImageFix" result="shape"/>
<feGaussianBlur stdDeviation="150" result="effect1_foregroundBlur_97_27"/>
</filter>
<filter id="filter3_f_97_27" x="-399" y="5849" width="1209" height="984" filterUnits="userSpaceOnUse" color-interpolation-filters="sRGB">
<feFlood flood-opacity="0" result="BackgroundImageFix"/>
<feBlend mode="normal" in="SourceGraphic" in2="BackgroundImageFix" result="shape"/>
<feGaussianBlur stdDeviation="150" result="effect1_foregroundBlur_97_27"/>
</filter>
<filter id="filter4_f_97_27" x="30" y="2040" width="1369" height="1379" filterUnits="userSpaceOnUse" color-interpolation-filters="sRGB">
<feFlood flood-opacity="0" result="BackgroundImageFix"/>
<feBlend mode="normal" in="SourceGraphic" in2="BackgroundImageFix" result="shape"/>
<feGaussianBlur stdDeviation="150" result="effect1_foregroundBlur_97_27"/>
</filter>
<filter id="filter5_f_97_27" x="30" y="5581" width="1369" height="1379" filterUnits="userSpaceOnUse" color-interpolation-filters="sRGB">
<feFlood flood-opacity="0" result="BackgroundImageFix"/>
<feBlend mode="normal" in="SourceGraphic" in2="BackgroundImageFix" result="shape"/>
<feGaussianBlur stdDeviation="150" result="effect1_foregroundBlur_97_27"/>
</filter>
<filter id="filter6_f_97_27" x="780" y="3579" width="1523" height="1177" filterUnits="userSpaceOnUse" color-interpolation-filters="sRGB">
<feFlood flood-opacity="0" result="BackgroundImageFix"/>
<feBlend mode="normal" in="SourceGraphic" in2="BackgroundImageFix" result="shape"/>
<feGaussianBlur stdDeviation="150" result="effect1_foregroundBlur_97_27"/>
</filter>
<filter id="filter7_f_97_27" x="501" y="3904" width="1284" height="882" filterUnits="userSpaceOnUse" color-interpolation-filters="sRGB">
<feFlood flood-opacity="0" result="BackgroundImageFix"/>
<feBlend mode="normal" in="SourceGraphic" in2="BackgroundImageFix" result="shape"/>
<feGaussianBlur stdDeviation="150" result="effect1_foregroundBlur_97_27"/>
</filter>
<filter id="filter8_f_97_27" x="-245" y="3640" width="1284" height="882" filterUnits="userSpaceOnUse" color-interpolation-filters="sRGB">
<feFlood flood-opacity="0" result="BackgroundImageFix"/>
<feBlend mode="normal" in="SourceGraphic" in2="BackgroundImageFix" result="shape"/>
<feGaussianBlur stdDeviation="150" result="effect1_foregroundBlur_97_27"/>
</filter>
<filter id="filter9_f_97_27" x="1097" y="1951" width="1273" height="1273" filterUnits="userSpaceOnUse" color-interpolation-filters="sRGB">
<feFlood flood-opacity="0" result="BackgroundImageFix"/>
<feBlend mode="normal" in="SourceGraphic" in2="BackgroundImageFix" result="shape"/>
<feGaussianBlur stdDeviation="150" result="effect1_foregroundBlur_97_27"/>
</filter>
<filter id="filter10_f_97_27" x="650" y="5556" width="1720" height="1273" filterUnits="userSpaceOnUse" color-interpolation-filters="sRGB">
<feFlood flood-opacity="0" result="BackgroundImageFix"/>
<feBlend mode="normal" in="SourceGraphic" in2="BackgroundImageFix" result="shape"/>
<feGaussianBlur stdDeviation="150" result="effect1_foregroundBlur_97_27"/>
</filter>
<filter id="filter11_f_97_27" x="620" y="109" width="1209" height="984" filterUnits="userSpaceOnUse" color-interpolation-filters="sRGB">
<feFlood flood-opacity="0" result="BackgroundImageFix"/>
<feBlend mode="normal" in="SourceGraphic" in2="BackgroundImageFix" result="shape"/>
<feGaussianBlur stdDeviation="150" result="effect1_foregroundBlur_97_27"/>
</filter>
<filter id="filter12_f_97_27" x="1097" y="-299" width="1273" height="1273" filterUnits="userSpaceOnUse" color-interpolation-filters="sRGB">
<feFlood flood-opacity="0" result="BackgroundImageFix"/>
<feBlend mode="normal" in="SourceGraphic" in2="BackgroundImageFix" result="shape"/>
<feGaussianBlur stdDeviation="150" result="effect1_foregroundBlur_97_27"/>
</filter>
<filter id="filter13_f_97_27" x="-481" y="-445" width="1597" height="1220" filterUnits="userSpaceOnUse" color-interpolation-filters="sRGB">
<feFlood flood-opacity="0" result="BackgroundImageFix"/>
<feBlend mode="normal" in="SourceGraphic" in2="BackgroundImageFix" result="shape"/>
<feGaussianBlur stdDeviation="150" result="effect1_foregroundBlur_97_27"/>
</filter>
</defs>
</svg>
