<svg width="103" height="105" viewBox="0 0 103 105" fill="none" xmlns="http://www.w3.org/2000/svg">
<path d="M102.65 14.8395C102.322 14.4055 101.809 14.1504 101.264 14.1504H87.074C86.115 14.1504 85.3378 14.9255 85.3378 15.8817C85.3378 16.838 86.115 17.613 87.074 17.613H98.8428C96.2755 24.5804 86.8327 46.0221 65.9029 52.9895C80.7014 38.952 80.9156 3.59287 80.9156 1.73229C80.9156 0.776027 80.1383 0.000976562 79.1793 0.000976562H24.6198C24.1597 0.000976562 23.7175 0.183341 23.3923 0.508251C23.0664 0.832583 22.8836 1.27291 22.8836 1.73229C22.8836 3.59749 23.0994 39.1211 38.0039 53.0893C28.9343 50.1825 20.9534 44.285 14.174 35.4438C8.72396 28.3368 5.56053 21.1443 4.19816 17.6136H16.2257C17.1846 17.6136 17.9619 16.8386 17.9619 15.8823C17.9619 14.926 17.1846 14.151 16.2257 14.151H1.73618C1.18579 14.151 0.667814 14.4113 0.340244 14.8527C0.0126739 15.2942 -0.0851342 15.8638 0.0757572 16.3884C0.20829 16.8195 3.40528 27.0683 11.3474 37.4585C19.9001 48.6485 30.6775 55.5813 42.8815 57.8458C42.804 62.0067 41.8439 74.5195 33.371 79.0186H29.266C26.2426 79.0186 23.7824 81.4719 23.7824 84.4872V99.5329C23.7824 102.548 26.242 105.002 29.266 105.002H74.433C77.4564 105.002 79.9167 102.548 79.9167 99.5329V84.4872C79.9167 81.4719 77.457 79.0186 74.433 79.0186H69.8934C61.4819 74.5524 60.4743 62.1908 60.3846 57.9393C72.7691 55.7758 83.6044 48.8003 92.0651 37.4412C99.8087 27.0441 102.808 16.7901 102.933 16.359C103.083 15.8367 102.978 15.274 102.65 14.84L102.65 14.8395ZM26.3931 3.46302H77.4066C77.1132 12.6528 74.5245 55.2033 51.9002 55.2033C29.2758 55.2033 26.6865 12.6528 26.3931 3.46302ZM76.4442 84.4861V99.5318C76.4442 100.637 75.5419 101.538 74.433 101.538H29.266C28.1571 101.538 27.2548 100.637 27.2548 99.5318V84.4861C27.2548 83.3803 28.1571 82.4801 29.266 82.4801H33.8062C33.8062 82.4801 33.8114 82.4801 33.8143 82.4801C33.8161 82.4801 33.8178 82.4801 33.8195 82.4801H69.446C69.446 82.4801 69.4495 82.4801 69.4512 82.4801C69.4541 82.4801 69.4564 82.4801 69.4593 82.4801H74.4336C75.5425 82.4801 76.4448 83.3803 76.4448 84.4861H76.4442ZM64.1551 79.0174H39.1099C45.2914 72.7865 46.2452 62.682 46.3534 58.3577C48.1742 58.5603 50.0233 58.6653 51.8996 58.6653C53.5947 58.6653 55.265 58.577 56.9121 58.412C57.0273 62.7679 58.0001 72.813 64.1551 79.0174ZM65.7814 91.51C65.7814 92.4663 65.0041 93.2413 64.0451 93.2413H40.2083C39.2493 93.2413 38.4721 92.4663 38.4721 91.51C38.4721 90.5537 39.2493 89.7787 40.2083 89.7787H64.0451C65.0041 89.7787 65.7814 90.5537 65.7814 91.51Z" fill="url(#paint0_linear_151_129)"/>
<defs>
<linearGradient id="paint0_linear_151_129" x1="-0.000183105" y1="15.2261" x2="103" y2="15.2261" gradientUnits="userSpaceOnUse">
<stop stop-color="#B700C7"/>
<stop offset="0.46" stop-color="#DE3E63"/>
<stop offset="1" stop-color="#FF9440"/>
</linearGradient>
</defs>
</svg>
