<svg style="display: none;" aria-hidden="true" xmlns="http://www.w3.org/2000/svg" xmlns:xlink="http://www.w3.org/1999/xlink"><symbol viewBox="0 0 69 68" fill="none" id="svg-blue"><mask id="aa" maskUnits="userSpaceOnUse" x=".75" y="0" width="68" height="68" fill="#000"><path fill="#fff" d="M0.75 0H68.75V68H0.75z"/><path fill-rule="evenodd" clip-rule="evenodd" d="M45.25 22.5C45.25 32.165 37.415 40 27.75 40C18.085 40 10.25 32.165 10.25 22.5C10.25 12.835 18.085 5 27.75 5C37.415 5 45.25 12.835 45.25 22.5ZM63.75 12.5C63.75 16.6421 60.3921 20 56.25 20C52.1079 20 48.75 16.6421 48.75 12.5C48.75 8.35786 52.1079 5 56.25 5C60.3921 5 63.75 8.35786 63.75 12.5ZM15.75 63C21.2728 63 25.75 58.5228 25.75 53C25.75 47.4772 21.2728 43 15.75 43C10.2272 43 5.75 47.4772 5.75 53C5.75 58.5228 10.2272 63 15.75 63Z"/></mask><path fill-rule="evenodd" clip-rule="evenodd" d="M45.25 22.5C45.25 32.165 37.415 40 27.75 40C18.085 40 10.25 32.165 10.25 22.5C10.25 12.835 18.085 5 27.75 5C37.415 5 45.25 12.835 45.25 22.5ZM63.75 12.5C63.75 16.6421 60.3921 20 56.25 20C52.1079 20 48.75 16.6421 48.75 12.5C48.75 8.35786 52.1079 5 56.25 5C60.3921 5 63.75 8.35786 63.75 12.5ZM15.75 63C21.2728 63 25.75 58.5228 25.75 53C25.75 47.4772 21.2728 43 15.75 43C10.2272 43 5.75 47.4772 5.75 53C5.75 58.5228 10.2272 63 15.75 63Z" fill="#88D9E8"/><path d="M27.75 45C40.1764 45 50.25 34.9264 50.25 22.5H40.25C40.25 29.4036 34.6536 35 27.75 35V45ZM5.25 22.5C5.25 34.9264 15.3236 45 27.75 45V35C20.8464 35 15.25 29.4036 15.25 22.5H5.25ZM27.75 0C15.3236 0 5.25 10.0736 5.25 22.5H15.25C15.25 15.5964 20.8464 10 27.75 10V0ZM50.25 22.5C50.25 10.0736 40.1764 0 27.75 0V10C34.6536 10 40.25 15.5964 40.25 22.5H50.25ZM56.25 25C63.1536 25 68.75 19.4036 68.75 12.5H58.75C58.75 13.8807 57.6307 15 56.25 15V25ZM43.75 12.5C43.75 19.4036 49.3464 25 56.25 25V15C54.8693 15 53.75 13.8807 53.75 12.5H43.75ZM56.25 0C49.3464 0 43.75 5.59644 43.75 12.5H53.75C53.75 11.1193 54.8693 10 56.25 10V0ZM68.75 12.5C68.75 5.59644 63.1536 0 56.25 0V10C57.6307 10 58.75 11.1193 58.75 12.5H68.75ZM20.75 53C20.75 55.7614 18.5114 58 15.75 58V68C24.0343 68 30.75 61.2843 30.75 53H20.75ZM15.75 48C18.5114 48 20.75 50.2386 20.75 53H30.75C30.75 44.7157 24.0343 38 15.75 38V48ZM10.75 53C10.75 50.2386 12.9886 48 15.75 48V38C7.46573 38 0.75 44.7157 0.75 53H10.75ZM15.75 58C12.9886 58 10.75 55.7614 10.75 53H0.75C0.75 61.2843 7.46573 68 15.75 68V58Z" fill="#fff" mask="url(#aa)"/></symbol><symbol viewBox="0 0 68 68" fill="none" id="svg-dark-blue"><mask id="ba" maskUnits="userSpaceOnUse" x="0" y="0" width="68" height="68" fill="#000"><path fill="#fff" d="M0 0H68V68H0z"/><path fill-rule="evenodd" clip-rule="evenodd" d="M44.5 22.5C44.5 32.165 36.665 40 27 40C17.335 40 9.5 32.165 9.5 22.5C9.5 12.835 17.335 5 27 5C36.665 5 44.5 12.835 44.5 22.5ZM63 12.5C63 16.6421 59.6421 20 55.5 20C51.3579 20 48 16.6421 48 12.5C48 8.35786 51.3579 5 55.5 5C59.6421 5 63 8.35786 63 12.5ZM15 63C20.5228 63 25 58.5228 25 53C25 47.4772 20.5228 43 15 43C9.47715 43 5 47.4772 5 53C5 58.5228 9.47715 63 15 63Z"/></mask><path fill-rule="evenodd" clip-rule="evenodd" d="M44.5 22.5C44.5 32.165 36.665 40 27 40C17.335 40 9.5 32.165 9.5 22.5C9.5 12.835 17.335 5 27 5C36.665 5 44.5 12.835 44.5 22.5ZM63 12.5C63 16.6421 59.6421 20 55.5 20C51.3579 20 48 16.6421 48 12.5C48 8.35786 51.3579 5 55.5 5C59.6421 5 63 8.35786 63 12.5ZM15 63C20.5228 63 25 58.5228 25 53C25 47.4772 20.5228 43 15 43C9.47715 43 5 47.4772 5 53C5 58.5228 9.47715 63 15 63Z" fill="#449DBD"/><path d="M27 45C39.4264 45 49.5 34.9264 49.5 22.5H39.5C39.5 29.4036 33.9036 35 27 35V45ZM4.5 22.5C4.5 34.9264 14.5736 45 27 45V35C20.0964 35 14.5 29.4036 14.5 22.5H4.5ZM27 0C14.5736 0 4.5 10.0736 4.5 22.5H14.5C14.5 15.5964 20.0964 10 27 10V0ZM49.5 22.5C49.5 10.0736 39.4264 0 27 0V10C33.9036 10 39.5 15.5964 39.5 22.5H49.5ZM55.5 25C62.4036 25 68 19.4036 68 12.5H58C58 13.8807 56.8807 15 55.5 15V25ZM43 12.5C43 19.4036 48.5964 25 55.5 25V15C54.1193 15 53 13.8807 53 12.5H43ZM55.5 0C48.5964 0 43 5.59644 43 12.5H53C53 11.1193 54.1193 10 55.5 10V0ZM68 12.5C68 5.59644 62.4036 0 55.5 0V10C56.8807 10 58 11.1193 58 12.5H68ZM20 53C20 55.7614 17.7614 58 15 58V68C23.2843 68 30 61.2843 30 53H20ZM15 48C17.7614 48 20 50.2386 20 53H30C30 44.7157 23.2843 38 15 38V48ZM10 53C10 50.2386 12.2386 48 15 48V38C6.71573 38 0 44.7157 0 53H10ZM15 58C12.2386 58 10 55.7614 10 53H0C0 61.2843 6.71573 68 15 68V58Z" fill="#fff" mask="url(#ba)"/></symbol><symbol viewBox="0 0 69 68" fill="none" id="svg-dark-green"><mask id="ca" maskUnits="userSpaceOnUse" x=".75" y="0" width="68" height="68" fill="#000"><path fill="#fff" d="M0.75 0H68.75V68H0.75z"/><path fill-rule="evenodd" clip-rule="evenodd" d="M45.25 22.5C45.25 32.165 37.415 40 27.75 40C18.085 40 10.25 32.165 10.25 22.5C10.25 12.835 18.085 5 27.75 5C37.415 5 45.25 12.835 45.25 22.5ZM63.75 12.5C63.75 16.6421 60.3921 20 56.25 20C52.1079 20 48.75 16.6421 48.75 12.5C48.75 8.35786 52.1079 5 56.25 5C60.3921 5 63.75 8.35786 63.75 12.5ZM15.75 63C21.2728 63 25.75 58.5228 25.75 53C25.75 47.4772 21.2728 43 15.75 43C10.2272 43 5.75 47.4772 5.75 53C5.75 58.5228 10.2272 63 15.75 63Z"/></mask><path fill-rule="evenodd" clip-rule="evenodd" d="M45.25 22.5C45.25 32.165 37.415 40 27.75 40C18.085 40 10.25 32.165 10.25 22.5C10.25 12.835 18.085 5 27.75 5C37.415 5 45.25 12.835 45.25 22.5ZM63.75 12.5C63.75 16.6421 60.3921 20 56.25 20C52.1079 20 48.75 16.6421 48.75 12.5C48.75 8.35786 52.1079 5 56.25 5C60.3921 5 63.75 8.35786 63.75 12.5ZM15.75 63C21.2728 63 25.75 58.5228 25.75 53C25.75 47.4772 21.2728 43 15.75 43C10.2272 43 5.75 47.4772 5.75 53C5.75 58.5228 10.2272 63 15.75 63Z" fill="#72CC80"/><path d="M27.75 45C40.1764 45 50.25 34.9264 50.25 22.5H40.25C40.25 29.4036 34.6536 35 27.75 35V45ZM5.25 22.5C5.25 34.9264 15.3236 45 27.75 45V35C20.8464 35 15.25 29.4036 15.25 22.5H5.25ZM27.75 0C15.3236 0 5.25 10.0736 5.25 22.5H15.25C15.25 15.5964 20.8464 10 27.75 10V0ZM50.25 22.5C50.25 10.0736 40.1764 0 27.75 0V10C34.6536 10 40.25 15.5964 40.25 22.5H50.25ZM56.25 25C63.1536 25 68.75 19.4036 68.75 12.5H58.75C58.75 13.8807 57.6307 15 56.25 15V25ZM43.75 12.5C43.75 19.4036 49.3464 25 56.25 25V15C54.8693 15 53.75 13.8807 53.75 12.5H43.75ZM56.25 0C49.3464 0 43.75 5.59644 43.75 12.5H53.75C53.75 11.1193 54.8693 10 56.25 10V0ZM68.75 12.5C68.75 5.59644 63.1536 0 56.25 0V10C57.6307 10 58.75 11.1193 58.75 12.5H68.75ZM20.75 53C20.75 55.7614 18.5114 58 15.75 58V68C24.0343 68 30.75 61.2843 30.75 53H20.75ZM15.75 48C18.5114 48 20.75 50.2386 20.75 53H30.75C30.75 44.7157 24.0343 38 15.75 38V48ZM10.75 53C10.75 50.2386 12.9886 48 15.75 48V38C7.46573 38 0.75 44.7157 0.75 53H10.75ZM15.75 58C12.9886 58 10.75 55.7614 10.75 53H0.75C0.75 61.2843 7.46573 68 15.75 68V58Z" fill="#fff" mask="url(#ca)"/></symbol><symbol viewBox="0 0 69 68" fill="none" id="svg-dark-purple"><mask id="da" maskUnits="userSpaceOnUse" x=".25" y="0" width="68" height="68" fill="#000"><path fill="#fff" d="M0.25 0H68.25V68H0.25z"/><path fill-rule="evenodd" clip-rule="evenodd" d="M44.75 22.5C44.75 32.165 36.915 40 27.25 40C17.585 40 9.75 32.165 9.75 22.5C9.75 12.835 17.585 5 27.25 5C36.915 5 44.75 12.835 44.75 22.5ZM63.25 12.5C63.25 16.6421 59.8921 20 55.75 20C51.6079 20 48.25 16.6421 48.25 12.5C48.25 8.35786 51.6079 5 55.75 5C59.8921 5 63.25 8.35786 63.25 12.5ZM15.25 63C20.7728 63 25.25 58.5228 25.25 53C25.25 47.4772 20.7728 43 15.25 43C9.72715 43 5.25 47.4772 5.25 53C5.25 58.5228 9.72715 63 15.25 63Z"/></mask><path fill-rule="evenodd" clip-rule="evenodd" d="M44.75 22.5C44.75 32.165 36.915 40 27.25 40C17.585 40 9.75 32.165 9.75 22.5C9.75 12.835 17.585 5 27.25 5C36.915 5 44.75 12.835 44.75 22.5ZM63.25 12.5C63.25 16.6421 59.8921 20 55.75 20C51.6079 20 48.25 16.6421 48.25 12.5C48.25 8.35786 51.6079 5 55.75 5C59.8921 5 63.25 8.35786 63.25 12.5ZM15.25 63C20.7728 63 25.25 58.5228 25.25 53C25.25 47.4772 20.7728 43 15.25 43C9.72715 43 5.25 47.4772 5.25 53C5.25 58.5228 9.72715 63 15.25 63Z" fill="#B14F78"/><path d="M27.25 45C39.6764 45 49.75 34.9264 49.75 22.5H39.75C39.75 29.4036 34.1536 35 27.25 35V45ZM4.75 22.5C4.75 34.9264 14.8236 45 27.25 45V35C20.3464 35 14.75 29.4036 14.75 22.5H4.75ZM27.25 0C14.8236 0 4.75 10.0736 4.75 22.5H14.75C14.75 15.5964 20.3464 10 27.25 10V0ZM49.75 22.5C49.75 10.0736 39.6764 0 27.25 0V10C34.1536 10 39.75 15.5964 39.75 22.5H49.75ZM55.75 25C62.6536 25 68.25 19.4036 68.25 12.5H58.25C58.25 13.8807 57.1307 15 55.75 15V25ZM43.25 12.5C43.25 19.4036 48.8464 25 55.75 25V15C54.3693 15 53.25 13.8807 53.25 12.5H43.25ZM55.75 0C48.8464 0 43.25 5.59644 43.25 12.5H53.25C53.25 11.1193 54.3693 10 55.75 10V0ZM68.25 12.5C68.25 5.59644 62.6536 0 55.75 0V10C57.1307 10 58.25 11.1193 58.25 12.5H68.25ZM20.25 53C20.25 55.7614 18.0114 58 15.25 58V68C23.5343 68 30.25 61.2843 30.25 53H20.25ZM15.25 48C18.0114 48 20.25 50.2386 20.25 53H30.25C30.25 44.7157 23.5343 38 15.25 38V48ZM10.25 53C10.25 50.2386 12.4886 48 15.25 48V38C6.96573 38 0.25 44.7157 0.25 53H10.25ZM15.25 58C12.4886 58 10.25 55.7614 10.25 53H0.25C0.25 61.2843 6.96573 68 15.25 68V58Z" fill="#fff" mask="url(#da)"/></symbol><symbol viewBox="0 0 68 68" fill="none" id="svg-green"><mask id="ea" maskUnits="userSpaceOnUse" x="0" y="0" width="68" height="68" fill="#000"><path fill="#fff" d="M0 0H68V68H0z"/><path fill-rule="evenodd" clip-rule="evenodd" d="M44.5 22.5C44.5 32.165 36.665 40 27 40C17.335 40 9.5 32.165 9.5 22.5C9.5 12.835 17.335 5 27 5C36.665 5 44.5 12.835 44.5 22.5ZM63 12.5C63 16.6421 59.6421 20 55.5 20C51.3579 20 48 16.6421 48 12.5C48 8.35786 51.3579 5 55.5 5C59.6421 5 63 8.35786 63 12.5ZM15 63C20.5228 63 25 58.5228 25 53C25 47.4772 20.5228 43 15 43C9.47715 43 5 47.4772 5 53C5 58.5228 9.47715 63 15 63Z"/></mask><path fill-rule="evenodd" clip-rule="evenodd" d="M44.5 22.5C44.5 32.165 36.665 40 27 40C17.335 40 9.5 32.165 9.5 22.5C9.5 12.835 17.335 5 27 5C36.665 5 44.5 12.835 44.5 22.5ZM63 12.5C63 16.6421 59.6421 20 55.5 20C51.3579 20 48 16.6421 48 12.5C48 8.35786 51.3579 5 55.5 5C59.6421 5 63 8.35786 63 12.5ZM15 63C20.5228 63 25 58.5228 25 53C25 47.4772 20.5228 43 15 43C9.47715 43 5 47.4772 5 53C5 58.5228 9.47715 63 15 63Z" fill="#B6E083"/><path d="M27 45C39.4264 45 49.5 34.9264 49.5 22.5H39.5C39.5 29.4036 33.9036 35 27 35V45ZM4.5 22.5C4.5 34.9264 14.5736 45 27 45V35C20.0964 35 14.5 29.4036 14.5 22.5H4.5ZM27 0C14.5736 0 4.5 10.0736 4.5 22.5H14.5C14.5 15.5964 20.0964 10 27 10V0ZM49.5 22.5C49.5 10.0736 39.4264 0 27 0V10C33.9036 10 39.5 15.5964 39.5 22.5H49.5ZM55.5 25C62.4036 25 68 19.4036 68 12.5H58C58 13.8807 56.8807 15 55.5 15V25ZM43 12.5C43 19.4036 48.5964 25 55.5 25V15C54.1193 15 53 13.8807 53 12.5H43ZM55.5 0C48.5964 0 43 5.59644 43 12.5H53C53 11.1193 54.1193 10 55.5 10V0ZM68 12.5C68 5.59644 62.4036 0 55.5 0V10C56.8807 10 58 11.1193 58 12.5H68ZM20 53C20 55.7614 17.7614 58 15 58V68C23.2843 68 30 61.2843 30 53H20ZM15 48C17.7614 48 20 50.2386 20 53H30C30 44.7157 23.2843 38 15 38V48ZM10 53C10 50.2386 12.2386 48 15 48V38C6.71573 38 0 44.7157 0 53H10ZM15 58C12.2386 58 10 55.7614 10 53H0C0 61.2843 6.71573 68 15 68V58Z" fill="#fff" mask="url(#ea)"/></symbol><symbol viewBox="0 0 69 68" fill="none" id="svg-orange"><mask id="fa" maskUnits="userSpaceOnUse" x=".25" y="0" width="68" height="68" fill="#000"><path fill="#fff" d="M0.25 0H68.25V68H0.25z"/><path fill-rule="evenodd" clip-rule="evenodd" d="M44.75 22.5C44.75 32.165 36.915 40 27.25 40C17.585 40 9.75 32.165 9.75 22.5C9.75 12.835 17.585 5 27.25 5C36.915 5 44.75 12.835 44.75 22.5ZM63.25 12.5C63.25 16.6421 59.8921 20 55.75 20C51.6079 20 48.25 16.6421 48.25 12.5C48.25 8.35786 51.6079 5 55.75 5C59.8921 5 63.25 8.35786 63.25 12.5ZM15.25 63C20.7728 63 25.25 58.5228 25.25 53C25.25 47.4772 20.7728 43 15.25 43C9.72715 43 5.25 47.4772 5.25 53C5.25 58.5228 9.72715 63 15.25 63Z"/></mask><path fill-rule="evenodd" clip-rule="evenodd" d="M44.75 22.5C44.75 32.165 36.915 40 27.25 40C17.585 40 9.75 32.165 9.75 22.5C9.75 12.835 17.585 5 27.25 5C36.915 5 44.75 12.835 44.75 22.5ZM63.25 12.5C63.25 16.6421 59.8921 20 55.75 20C51.6079 20 48.25 16.6421 48.25 12.5C48.25 8.35786 51.6079 5 55.75 5C59.8921 5 63.25 8.35786 63.25 12.5ZM15.25 63C20.7728 63 25.25 58.5228 25.25 53C25.25 47.4772 20.7728 43 15.25 43C9.72715 43 5.25 47.4772 5.25 53C5.25 58.5228 9.72715 63 15.25 63Z" fill="#FF9440"/><path d="M27.25 45C39.6764 45 49.75 34.9264 49.75 22.5H39.75C39.75 29.4036 34.1536 35 27.25 35V45ZM4.75 22.5C4.75 34.9264 14.8236 45 27.25 45V35C20.3464 35 14.75 29.4036 14.75 22.5H4.75ZM27.25 0C14.8236 0 4.75 10.0736 4.75 22.5H14.75C14.75 15.5964 20.3464 10 27.25 10V0ZM49.75 22.5C49.75 10.0736 39.6764 0 27.25 0V10C34.1536 10 39.75 15.5964 39.75 22.5H49.75ZM55.75 25C62.6536 25 68.25 19.4036 68.25 12.5H58.25C58.25 13.8807 57.1307 15 55.75 15V25ZM43.25 12.5C43.25 19.4036 48.8464 25 55.75 25V15C54.3693 15 53.25 13.8807 53.25 12.5H43.25ZM55.75 0C48.8464 0 43.25 5.59644 43.25 12.5H53.25C53.25 11.1193 54.3693 10 55.75 10V0ZM68.25 12.5C68.25 5.59644 62.6536 0 55.75 0V10C57.1307 10 58.25 11.1193 58.25 12.5H68.25ZM20.25 53C20.25 55.7614 18.0114 58 15.25 58V68C23.5343 68 30.25 61.2843 30.25 53H20.25ZM15.25 48C18.0114 48 20.25 50.2386 20.25 53H30.25C30.25 44.7157 23.5343 38 15.25 38V48ZM10.25 53C10.25 50.2386 12.4886 48 15.25 48V38C6.96573 38 0.25 44.7157 0.25 53H10.25ZM15.25 58C12.4886 58 10.25 55.7614 10.25 53H0.25C0.25 61.2843 6.96573 68 15.25 68V58Z" fill="#fff" mask="url(#fa)"/></symbol><symbol viewBox="0 0 68 68" fill="none" id="svg-pink"><mask id="ga" maskUnits="userSpaceOnUse" x="0" y="0" width="68" height="68" fill="#000"><path fill="#fff" d="M0 0H68V68H0z"/><path fill-rule="evenodd" clip-rule="evenodd" d="M44.5 22.5C44.5 32.165 36.665 40 27 40C17.335 40 9.5 32.165 9.5 22.5C9.5 12.835 17.335 5 27 5C36.665 5 44.5 12.835 44.5 22.5ZM63 12.5C63 16.6421 59.6421 20 55.5 20C51.3579 20 48 16.6421 48 12.5C48 8.35786 51.3579 5 55.5 5C59.6421 5 63 8.35786 63 12.5ZM15 63C20.5228 63 25 58.5228 25 53C25 47.4772 20.5228 43 15 43C9.47715 43 5 47.4772 5 53C5 58.5228 9.47715 63 15 63Z"/></mask><path fill-rule="evenodd" clip-rule="evenodd" d="M44.5 22.5C44.5 32.165 36.665 40 27 40C17.335 40 9.5 32.165 9.5 22.5C9.5 12.835 17.335 5 27 5C36.665 5 44.5 12.835 44.5 22.5ZM63 12.5C63 16.6421 59.6421 20 55.5 20C51.3579 20 48 16.6421 48 12.5C48 8.35786 51.3579 5 55.5 5C59.6421 5 63 8.35786 63 12.5ZM15 63C20.5228 63 25 58.5228 25 53C25 47.4772 20.5228 43 15 43C9.47715 43 5 47.4772 5 53C5 58.5228 9.47715 63 15 63Z" fill="#FF849C"/><path d="M27 45C39.4264 45 49.5 34.9264 49.5 22.5H39.5C39.5 29.4036 33.9036 35 27 35V45ZM4.5 22.5C4.5 34.9264 14.5736 45 27 45V35C20.0964 35 14.5 29.4036 14.5 22.5H4.5ZM27 0C14.5736 0 4.5 10.0736 4.5 22.5H14.5C14.5 15.5964 20.0964 10 27 10V0ZM49.5 22.5C49.5 10.0736 39.4264 0 27 0V10C33.9036 10 39.5 15.5964 39.5 22.5H49.5ZM55.5 25C62.4036 25 68 19.4036 68 12.5H58C58 13.8807 56.8807 15 55.5 15V25ZM43 12.5C43 19.4036 48.5964 25 55.5 25V15C54.1193 15 53 13.8807 53 12.5H43ZM55.5 0C48.5964 0 43 5.59644 43 12.5H53C53 11.1193 54.1193 10 55.5 10V0ZM68 12.5C68 5.59644 62.4036 0 55.5 0V10C56.8807 10 58 11.1193 58 12.5H68ZM20 53C20 55.7614 17.7614 58 15 58V68C23.2843 68 30 61.2843 30 53H20ZM15 48C17.7614 48 20 50.2386 20 53H30C30 44.7157 23.2843 38 15 38V48ZM10 53C10 50.2386 12.2386 48 15 48V38C6.71573 38 0 44.7157 0 53H10ZM15 58C12.2386 58 10 55.7614 10 53H0C0 61.2843 6.71573 68 15 68V58Z" fill="#fff" mask="url(#ga)"/></symbol><symbol viewBox="0 0 69 68" fill="none" id="svg-purple"><mask id="ha" maskUnits="userSpaceOnUse" x=".5" y="0" width="68" height="68" fill="#000"><path fill="#fff" d="M0.5 0H68.5V68H0.5z"/><path fill-rule="evenodd" clip-rule="evenodd" d="M45 22.5C45 32.165 37.165 40 27.5 40C17.835 40 10 32.165 10 22.5C10 12.835 17.835 5 27.5 5C37.165 5 45 12.835 45 22.5ZM63.5 12.5C63.5 16.6421 60.1421 20 56 20C51.8579 20 48.5 16.6421 48.5 12.5C48.5 8.35786 51.8579 5 56 5C60.1421 5 63.5 8.35786 63.5 12.5ZM15.5 63C21.0228 63 25.5 58.5228 25.5 53C25.5 47.4772 21.0228 43 15.5 43C9.97715 43 5.5 47.4772 5.5 53C5.5 58.5228 9.97715 63 15.5 63Z"/></mask><path fill-rule="evenodd" clip-rule="evenodd" d="M45 22.5C45 32.165 37.165 40 27.5 40C17.835 40 10 32.165 10 22.5C10 12.835 17.835 5 27.5 5C37.165 5 45 12.835 45 22.5ZM63.5 12.5C63.5 16.6421 60.1421 20 56 20C51.8579 20 48.5 16.6421 48.5 12.5C48.5 8.35786 51.8579 5 56 5C60.1421 5 63.5 8.35786 63.5 12.5ZM15.5 63C21.0228 63 25.5 58.5228 25.5 53C25.5 47.4772 21.0228 43 15.5 43C9.97715 43 5.5 47.4772 5.5 53C5.5 58.5228 9.97715 63 15.5 63Z" fill="#C7A7D9"/><path d="M27.5 45C39.9264 45 50 34.9264 50 22.5H40C40 29.4036 34.4036 35 27.5 35V45ZM5 22.5C5 34.9264 15.0736 45 27.5 45V35C20.5964 35 15 29.4036 15 22.5H5ZM27.5 0C15.0736 0 5 10.0736 5 22.5H15C15 15.5964 20.5964 10 27.5 10V0ZM50 22.5C50 10.0736 39.9264 0 27.5 0V10C34.4036 10 40 15.5964 40 22.5H50ZM56 25C62.9036 25 68.5 19.4036 68.5 12.5H58.5C58.5 13.8807 57.3807 15 56 15V25ZM43.5 12.5C43.5 19.4036 49.0964 25 56 25V15C54.6193 15 53.5 13.8807 53.5 12.5H43.5ZM56 0C49.0964 0 43.5 5.59644 43.5 12.5H53.5C53.5 11.1193 54.6193 10 56 10V0ZM68.5 12.5C68.5 5.59644 62.9036 0 56 0V10C57.3807 10 58.5 11.1193 58.5 12.5H68.5ZM20.5 53C20.5 55.7614 18.2614 58 15.5 58V68C23.7843 68 30.5 61.2843 30.5 53H20.5ZM15.5 48C18.2614 48 20.5 50.2386 20.5 53H30.5C30.5 44.7157 23.7843 38 15.5 38V48ZM10.5 53C10.5 50.2386 12.7386 48 15.5 48V38C7.21573 38 0.5 44.7157 0.5 53H10.5ZM15.5 58C12.7386 58 10.5 55.7614 10.5 53H0.5C0.5 61.2843 7.21573 68 15.5 68V58Z" fill="#fff" mask="url(#ha)"/></symbol><symbol viewBox="0 0 68 68" fill="none" id="svg-red"><mask id="ia" maskUnits="userSpaceOnUse" x="0" y="0" width="68" height="68" fill="#000"><path fill="#fff" d="M0 0H68V68H0z"/><path fill-rule="evenodd" clip-rule="evenodd" d="M44.5 22.5C44.5 32.165 36.665 40 27 40C17.335 40 9.5 32.165 9.5 22.5C9.5 12.835 17.335 5 27 5C36.665 5 44.5 12.835 44.5 22.5ZM63 12.5C63 16.6421 59.6421 20 55.5 20C51.3579 20 48 16.6421 48 12.5C48 8.35786 51.3579 5 55.5 5C59.6421 5 63 8.35786 63 12.5ZM15 63C20.5228 63 25 58.5228 25 53C25 47.4772 20.5228 43 15 43C9.47715 43 5 47.4772 5 53C5 58.5228 9.47715 63 15 63Z"/></mask><path fill-rule="evenodd" clip-rule="evenodd" d="M44.5 22.5C44.5 32.165 36.665 40 27 40C17.335 40 9.5 32.165 9.5 22.5C9.5 12.835 17.335 5 27 5C36.665 5 44.5 12.835 44.5 22.5ZM63 12.5C63 16.6421 59.6421 20 55.5 20C51.3579 20 48 16.6421 48 12.5C48 8.35786 51.3579 5 55.5 5C59.6421 5 63 8.35786 63 12.5ZM15 63C20.5228 63 25 58.5228 25 53C25 47.4772 20.5228 43 15 43C9.47715 43 5 47.4772 5 53C5 58.5228 9.47715 63 15 63Z" fill="#F44F1B"/><path d="M27 45C39.4264 45 49.5 34.9264 49.5 22.5H39.5C39.5 29.4036 33.9036 35 27 35V45ZM4.5 22.5C4.5 34.9264 14.5736 45 27 45V35C20.0964 35 14.5 29.4036 14.5 22.5H4.5ZM27 0C14.5736 0 4.5 10.0736 4.5 22.5H14.5C14.5 15.5964 20.0964 10 27 10V0ZM49.5 22.5C49.5 10.0736 39.4264 0 27 0V10C33.9036 10 39.5 15.5964 39.5 22.5H49.5ZM55.5 25C62.4036 25 68 19.4036 68 12.5H58C58 13.8807 56.8807 15 55.5 15V25ZM43 12.5C43 19.4036 48.5964 25 55.5 25V15C54.1193 15 53 13.8807 53 12.5H43ZM55.5 0C48.5964 0 43 5.59644 43 12.5H53C53 11.1193 54.1193 10 55.5 10V0ZM68 12.5C68 5.59644 62.4036 0 55.5 0V10C56.8807 10 58 11.1193 58 12.5H68ZM20 53C20 55.7614 17.7614 58 15 58V68C23.2843 68 30 61.2843 30 53H20ZM15 48C17.7614 48 20 50.2386 20 53H30C30 44.7157 23.2843 38 15 38V48ZM10 53C10 50.2386 12.2386 48 15 48V38C6.71573 38 0 44.7157 0 53H10ZM15 58C12.2386 58 10 55.7614 10 53H0C0 61.2843 6.71573 68 15 68V58Z" fill="#fff" mask="url(#ia)"/></symbol><symbol viewBox="0 0 69 68" fill="none" id="svg-yellow"><mask id="ja" maskUnits="userSpaceOnUse" x=".5" y="0" width="68" height="68" fill="#000"><path fill="#fff" d="M0.5 0H68.5V68H0.5z"/><path fill-rule="evenodd" clip-rule="evenodd" d="M45 22.5C45 32.165 37.165 40 27.5 40C17.835 40 10 32.165 10 22.5C10 12.835 17.835 5 27.5 5C37.165 5 45 12.835 45 22.5ZM63.5 12.5C63.5 16.6421 60.1421 20 56 20C51.8579 20 48.5 16.6421 48.5 12.5C48.5 8.35786 51.8579 5 56 5C60.1421 5 63.5 8.35786 63.5 12.5ZM15.5 63C21.0228 63 25.5 58.5228 25.5 53C25.5 47.4772 21.0228 43 15.5 43C9.97715 43 5.5 47.4772 5.5 53C5.5 58.5228 9.97715 63 15.5 63Z"/></mask><path fill-rule="evenodd" clip-rule="evenodd" d="M45 22.5C45 32.165 37.165 40 27.5 40C17.835 40 10 32.165 10 22.5C10 12.835 17.835 5 27.5 5C37.165 5 45 12.835 45 22.5ZM63.5 12.5C63.5 16.6421 60.1421 20 56 20C51.8579 20 48.5 16.6421 48.5 12.5C48.5 8.35786 51.8579 5 56 5C60.1421 5 63.5 8.35786 63.5 12.5ZM15.5 63C21.0228 63 25.5 58.5228 25.5 53C25.5 47.4772 21.0228 43 15.5 43C9.97715 43 5.5 47.4772 5.5 53C5.5 58.5228 9.97715 63 15.5 63Z" fill="#FFDA83"/><path d="M27.5 45C39.9264 45 50 34.9264 50 22.5H40C40 29.4036 34.4036 35 27.5 35V45ZM5 22.5C5 34.9264 15.0736 45 27.5 45V35C20.5964 35 15 29.4036 15 22.5H5ZM27.5 0C15.0736 0 5 10.0736 5 22.5H15C15 15.5964 20.5964 10 27.5 10V0ZM50 22.5C50 10.0736 39.9264 0 27.5 0V10C34.4036 10 40 15.5964 40 22.5H50ZM56 25C62.9036 25 68.5 19.4036 68.5 12.5H58.5C58.5 13.8807 57.3807 15 56 15V25ZM43.5 12.5C43.5 19.4036 49.0964 25 56 25V15C54.6193 15 53.5 13.8807 53.5 12.5H43.5ZM56 0C49.0964 0 43.5 5.59644 43.5 12.5H53.5C53.5 11.1193 54.6193 10 56 10V0ZM68.5 12.5C68.5 5.59644 62.9036 0 56 0V10C57.3807 10 58.5 11.1193 58.5 12.5H68.5ZM20.5 53C20.5 55.7614 18.2614 58 15.5 58V68C23.7843 68 30.5 61.2843 30.5 53H20.5ZM15.5 48C18.2614 48 20.5 50.2386 20.5 53H30.5C30.5 44.7157 23.7843 38 15.5 38V48ZM10.5 53C10.5 50.2386 12.7386 48 15.5 48V38C7.21573 38 0.5 44.7157 0.5 53H10.5ZM15.5 58C12.7386 58 10.5 55.7614 10.5 53H0.5C0.5 61.2843 7.21573 68 15.5 68V58Z" fill="#fff" mask="url(#ja)"/></symbol></svg>