<svg style="display: none;" aria-hidden="true" xmlns="http://www.w3.org/2000/svg" xmlns:xlink="http://www.w3.org/1999/xlink"><symbol viewBox="0 0 68 68" fill="none" id="svg-card_blue"><circle cx="27" cy="22.5" r="20" fill="#88D9E8" stroke="#fff" stroke-width="5"/><circle cx="55.5" cy="12.5" r="10" fill="#88D9E8" stroke="#fff" stroke-width="5"/><circle cx="15" cy="53" r="12.5" fill="#88D9E8" stroke="#fff" stroke-width="5"/></symbol><symbol viewBox="0 0 68 68" fill="none" id="svg-card_dark-blue"><circle cx="27" cy="22.5" r="20" fill="#449DBD" stroke="#fff" stroke-width="5"/><circle cx="55.5" cy="12.5" r="10" fill="#449DBD" stroke="#fff" stroke-width="5"/><circle cx="15" cy="53" r="12.5" fill="#449DBD" stroke="#fff" stroke-width="5"/></symbol><symbol viewBox="0 0 68 68" fill="none" id="svg-card_dark-green"><circle cx="27" cy="22.5" r="20" fill="#72CC80" stroke="#fff" stroke-width="5"/><circle cx="55.5" cy="12.5" r="10" fill="#72CC80" stroke="#fff" stroke-width="5"/><circle cx="15" cy="53" r="12.5" fill="#72CC80" stroke="#fff" stroke-width="5"/></symbol><symbol viewBox="0 0 68 68" fill="none" id="svg-card_dark-purple"><circle cx="27" cy="22.5" r="20" fill="#B14F78" stroke="#fff" stroke-width="5"/><circle cx="55.5" cy="12.5" r="10" fill="#B14F78" stroke="#fff" stroke-width="5"/><circle cx="15" cy="53" r="12.5" fill="#B14F78" stroke="#fff" stroke-width="5"/></symbol><symbol viewBox="0 0 68 68" fill="none" id="svg-card_green"><circle cx="27" cy="22.5" r="20" fill="#B6E083" stroke="#fff" stroke-width="5"/><circle cx="55.5" cy="12.5" r="10" fill="#B6E083" stroke="#fff" stroke-width="5"/><circle cx="15" cy="53" r="12.5" fill="#B6E083" stroke="#fff" stroke-width="5"/></symbol><symbol viewBox="0 0 68 68" fill="none" id="svg-card_orange"><circle cx="27" cy="22.5" r="20" fill="#FF9440" stroke="#fff" stroke-width="5"/><circle cx="55.5" cy="12.5" r="10" fill="#FF9440" stroke="#fff" stroke-width="5"/><circle cx="15" cy="53" r="12.5" fill="#FF9440" stroke="#fff" stroke-width="5"/></symbol><symbol viewBox="0 0 68 68" fill="none" id="svg-card_pink"><circle cx="27" cy="22.5" r="20" fill="#FF849C" stroke="#fff" stroke-width="5"/><circle cx="55.5" cy="12.5" r="10" fill="#FF849C" stroke="#fff" stroke-width="5"/><circle cx="15" cy="53" r="12.5" fill="#FF849C" stroke="#fff" stroke-width="5"/></symbol><symbol viewBox="0 0 68 68" fill="none" id="svg-card_purple"><circle cx="27" cy="22.5" r="20" fill="#C7A7D9" stroke="#fff" stroke-width="5"/><circle cx="55.5" cy="12.5" r="10" fill="#C7A7D9" stroke="#fff" stroke-width="5"/><circle cx="15" cy="53" r="12.5" fill="#C7A7D9" stroke="#fff" stroke-width="5"/></symbol><symbol viewBox="0 0 68 68" fill="none" id="svg-card_red"><circle cx="27" cy="22.5" r="20" fill="#F44F1B" stroke="#fff" stroke-width="5"/><circle cx="55.5" cy="12.5" r="10" fill="#F44F1B" stroke="#fff" stroke-width="5"/><circle cx="15" cy="53" r="12.5" fill="#F44F1B" stroke="#fff" stroke-width="5"/></symbol><symbol viewBox="0 0 68 68" fill="none" id="svg-card_yellow"><circle cx="27" cy="22.5" r="20" fill="#FFDA83" stroke="#fff" stroke-width="5"/><circle cx="55.5" cy="12.5" r="10" fill="#FFDA83" stroke="#fff" stroke-width="5"/><circle cx="15" cy="53" r="12.5" fill="#FFDA83" stroke="#fff" stroke-width="5"/></symbol></svg>