<svg width="23" height="22" viewBox="0 0 23 22" fill="none" xmlns="http://www.w3.org/2000/svg">
<path d="M23 9.17813C23 10.0125 22.6812 10.6896 22.0432 11.2086C21.4055 11.7279 20.4215 11.9874 19.091 11.9874L18.0376 11.9598L16.2076 11.8762C15.0251 11.8762 13.8143 12.0804 12.5759 12.4878C13.5366 13.6377 14.8666 14.7501 16.5664 15.8255C17.6931 16.5301 18.4273 17.1281 18.7692 17.6191C19.1107 18.1108 19.282 18.6623 19.282 19.2743C19.282 20.0346 19.0231 20.6787 18.5066 21.2072C17.9893 21.7352 17.3894 22 16.7064 22C15.9676 22 15.3307 21.7496 14.7953 21.2491C14.2599 20.7483 13.8169 19.8216 13.466 18.4675C13.0782 16.9099 12.7363 15.7793 12.4412 15.0743C12.2198 14.5368 11.9058 13.9804 11.4995 13.4054C11.0927 13.9618 10.7607 14.5277 10.5022 15.1019C10.3177 15.5289 10.0404 16.4465 9.67138 17.8551C9.20954 19.5429 8.82204 20.5808 8.50811 20.9704C7.99081 21.638 7.26184 21.9712 6.32006 21.9712C5.5077 21.9712 4.8474 21.7348 4.33953 21.262C3.83167 20.7892 3.57774 20.1912 3.57774 19.4684C3.57774 18.1887 4.45348 16.9746 6.20536 15.8247C7.49615 14.9721 8.29833 14.4157 8.61225 14.1559C9.03635 13.7856 9.57969 13.2292 10.2438 12.487C9.26538 12.0978 8.1391 11.903 6.86528 11.903L5.56392 11.9586L4.17993 12.0139C2.73972 12.0139 1.68286 11.7498 1.00935 11.221C0.335466 10.693 -0.00109863 9.96527 -0.00109863 9.03818C-0.00109863 8.33389 0.243402 7.74042 0.732779 7.25815C1.22178 6.77626 1.83605 6.53494 2.57445 6.53494C3.66414 6.53494 5.01191 7.22108 6.6189 8.59299C7.48672 9.33473 8.21569 9.88168 8.80657 10.2338C9.23143 10.4941 9.87777 10.7811 10.7456 11.0962L10.7735 10.2338C10.7735 9.36272 10.5317 8.28736 10.0487 7.00775C9.24878 4.93155 8.84921 3.59634 8.84921 3.00287C8.84921 2.14992 9.10804 1.43579 9.6261 0.861232C10.1438 0.286296 10.7637 -0.000793457 11.4851 -0.000793457C12.2247 -0.000793457 12.8537 0.26814 13.3717 0.80563C13.8894 1.34388 14.1486 2.00165 14.1486 2.78046C14.1486 3.29979 13.7803 4.59794 13.0449 6.67452C12.5661 8.02789 12.2813 9.50229 12.1892 11.0966C12.8729 10.8927 13.5011 10.6329 14.0743 10.3174C14.4991 10.0769 15.2564 9.51099 16.3472 8.62098C17.4743 7.67536 18.287 7.08681 18.7862 6.85494C19.285 6.62345 19.7751 6.50733 20.2554 6.50733C21.0316 6.50733 21.6828 6.76227 22.2096 7.27177C22.7359 7.7824 22.9993 8.4171 22.9993 9.177L23 9.17813Z" fill="#1D1D1B"/>
</svg>
