<svg width="20" height="18" viewBox="0 0 20 18" fill="none" xmlns="http://www.w3.org/2000/svg">
    <path
        d="M18.6559 0.568103L0.431843 7.65528C-0.160675 7.88577 -0.137695 8.7451 0.466313 8.94248L5.09244 10.454C5.21033 10.4925 5.33904 10.4758 5.44366 10.4083L16.0536 3.56454C16.3231 3.39072 16.6038 3.76854 16.3653 3.9841L8.02874 11.5171C7.92886 11.6073 7.86798 11.7338 7.85892 11.8692L7.58239 16.0509C7.56371 16.3332 7.89715 16.4909 8.09779 16.2946L10.6198 13.8279L15.4011 17.3353C15.8995 17.7009 16.6036 17.4274 16.7347 16.8173L19.9763 1.72065C20.1439 0.939866 19.3907 0.282295 18.6558 0.568103H18.6559Z"
        fill="url(#paint0_linear_151_540)" />
    <defs>
        <linearGradient id="paint0_linear_151_540" x1="0.00012207" y1="2.965" x2="20" y2="2.965"
            gradientUnits="userSpaceOnUse">
            <stop stop-color="#B700C7" />
            <stop offset="0.46" stop-color="#DE3E63" />
            <stop offset="1" stop-color="#FF9440" />
        </linearGradient>
    </defs>
</svg>