<svg width="21" height="12" viewBox="0 0 21 12" fill="none" xmlns="http://www.w3.org/2000/svg">
<path d="M19.5473 1H16.2568C16.1225 1 15.9907 1.03641 15.8755 1.10536C15.7602 1.17431 15.6658 1.27322 15.6023 1.39156C15.6023 1.39156 14.2899 3.80849 13.8684 4.62256C12.7343 6.8125 11.9999 6.125 11.9999 5.10863V1.60417C11.9999 1.31133 11.8836 1.03048 11.6765 0.823405C11.4695 0.616333 11.1886 0.500001 10.8958 0.500001H8.42177C8.08485 0.47495 7.74712 0.536448 7.44066 0.678653C7.1342 0.820858 6.86918 1.03905 6.67077 1.3125C6.67077 1.3125 7.92703 1.10938 7.92703 2.80208C7.92703 3.22182 7.94865 4.42931 7.96835 5.44208C7.97206 5.59132 7.9299 5.73811 7.84754 5.86263C7.76518 5.98715 7.6466 6.0834 7.5078 6.13838C7.36901 6.19337 7.21668 6.20444 7.07139 6.17011C6.92611 6.13577 6.79485 6.05769 6.69535 5.94639C5.6827 4.53798 4.8439 3.0124 4.19715 1.4028C4.14161 1.28239 4.05269 1.18045 3.94095 1.10905C3.82921 1.03765 3.69934 0.999808 3.56674 1C2.85314 1 1.42516 1 0.577131 1C0.494897 0.999441 0.413756 1.01885 0.34068 1.05657C0.267604 1.09429 0.204777 1.14918 0.157596 1.21654C0.110416 1.28389 0.0802926 1.3617 0.0698144 1.44326C0.0593363 1.52483 0.0688165 1.60772 0.0974407 1.68481C1.00523 4.17487 4.9157 12 9.37911 12H11.2578C11.4546 12 11.6434 11.9218 11.7826 11.7826C11.9217 11.6434 11.9999 11.4547 11.9999 11.2578V10.1234C11.9999 9.98111 12.0416 9.84192 12.1197 9.72298C12.1979 9.60404 12.3091 9.51057 12.4397 9.45407C12.5703 9.39757 12.7146 9.38052 12.8548 9.40501C12.995 9.42951 13.1249 9.49448 13.2286 9.59192L15.4772 11.7046C15.6792 11.8944 15.9458 12 16.2229 12H19.1758C20.5999 12 20.5999 11.0118 19.8234 10.2471C19.277 9.70889 17.3051 7.63043 17.3051 7.63043C17.1362 7.45549 17.0355 7.22593 17.0212 6.98321C17.0068 6.7405 17.0797 6.50064 17.2267 6.307C17.8641 5.46824 18.9066 4.09525 19.3487 3.50707C19.9531 2.70313 21.0468 1 19.5473 1Z" fill="url(#paint0_linear_151_536)"/>
<defs>
<linearGradient id="paint0_linear_151_536" x1="0.0656738" y1="2.16284" x2="20.343" y2="2.16284" gradientUnits="userSpaceOnUse">
<stop stop-color="#B700C7"/>
<stop offset="0.46" stop-color="#DE3E63"/>
<stop offset="1" stop-color="#FF9440"/>
</linearGradient>
</defs>
</svg>
