<svg width="18" height="18" viewBox="0 0 18 18" fill="none" xmlns="http://www.w3.org/2000/svg">
<path fill-rule="evenodd" clip-rule="evenodd" d="M13.1237 10.7952C12.8997 10.6831 11.7987 10.1415 11.5934 10.0666C11.3882 9.9919 11.2389 9.9546 11.0896 10.1787C10.9403 10.4029 10.5112 10.9073 10.3805 11.0568C10.2499 11.2062 10.1193 11.225 9.89536 11.1128C9.67141 11.0008 8.94983 10.7643 8.09448 10.0013C7.4288 9.40753 6.97932 8.67421 6.84872 8.45002C6.71808 8.22582 6.83476 8.10464 6.94688 7.99298C7.04767 7.89265 7.17086 7.73142 7.28279 7.60064C7.3948 7.46993 7.4321 7.37645 7.50674 7.22707C7.58137 7.07759 7.54407 6.94684 7.48804 6.83476C7.4321 6.72268 6.98425 5.62039 6.79764 5.17194C6.61584 4.73534 6.43124 4.79447 6.29378 4.78754C6.16331 4.78107 6.01383 4.7797 5.86459 4.7797C5.71532 4.7797 5.47267 4.83574 5.26739 5.05986C5.06215 5.28405 4.48365 5.82588 4.48365 6.92807C4.48365 8.03039 5.28606 9.09517 5.39803 9.24465C5.51 9.39414 6.97711 11.656 9.22359 12.626C9.75783 12.8568 10.175 12.9946 10.5002 13.0977C11.0366 13.2682 11.5248 13.2442 11.9107 13.1865C12.3409 13.1222 13.2356 12.6448 13.4222 12.1217C13.6088 11.5985 13.6088 11.1502 13.5528 11.0568C13.4969 10.9634 13.3476 10.9073 13.1237 10.7952ZM9.03765 16.3743H9.03463C7.69792 16.3737 6.38691 16.0146 5.2432 15.3359L4.97116 15.1745L2.15184 15.9141L2.90436 13.1652L2.72728 12.8834C1.98158 11.6974 1.58773 10.3266 1.58832 8.91903C1.58998 4.81191 4.93168 1.47048 9.04061 1.47048C11.0303 1.47115 12.9006 2.24701 14.307 3.65505C15.7135 5.06306 16.4875 6.93464 16.4868 8.92505C16.4851 13.0325 13.1434 16.3743 9.03765 16.3743ZM15.3774 2.58514C13.6853 0.891104 11.4351 -0.042259 9.03755 -0.0432434C4.0976 -0.0432434 0.0770977 3.97701 0.0750937 8.91847C0.0744609 10.4981 0.487125 12.0399 1.27146 13.3991L0 18.0433L4.75105 16.797C6.06013 17.511 7.53398 17.8874 9.034 17.8879H9.03769C13.9771 17.8879 17.998 13.8672 18 8.92564C18.0009 6.53091 17.0695 4.27918 15.3774 2.58514Z" fill="url(#paint0_linear_156_61)"/>
<defs>
<linearGradient id="paint0_linear_156_61" x1="0" y1="2.57931" x2="18" y2="2.57931" gradientUnits="userSpaceOnUse">
<stop stop-color="#B700C7"/>
<stop offset="0.46" stop-color="#DE3E63"/>
<stop offset="1" stop-color="#FF9440"/>
</linearGradient>
</defs>
</svg>
