<svg width="50" height="50" viewBox="0 0 50 50" fill="none" xmlns="http://www.w3.org/2000/svg">
<g id="icon">
<path id="Vector" d="M43.4608 29.4625C43.4608 23.4295 38.5691 18.5056 32.5561 18.4863C32.1752 18.4851 31.8674 18.1742 31.8688 17.792C31.87 17.4107 32.1787 17.1024 32.5584 17.1024H32.5607C39.3316 17.1243 44.8401 22.669 44.8401 29.4625C44.8401 36.256 39.3137 41.8229 32.5212 41.8229C30.311 41.8229 28.138 41.2248 26.2372 40.0937C25.9096 39.8988 25.8016 39.4742 25.9958 39.1458C26.1903 38.8171 26.6135 38.7085 26.9406 38.9036C28.6285 39.9081 30.5581 40.439 32.521 40.439C38.553 40.439 43.4606 35.5149 43.4606 29.4625H43.4608ZM44.8571 17.0851C41.7152 13.9328 37.6172 12.125 33.2504 11.943V9.07262C33.2504 8.69044 32.9416 8.38068 32.5607 8.38068C32.1798 8.38068 31.8711 8.69044 31.8711 9.07262V11.9377C25.4129 12.1822 19.5205 16.0515 16.734 21.936C16.5706 22.2813 16.7168 22.6939 17.0609 22.8579C17.4048 23.0217 17.8163 22.875 17.9797 22.53C20.6324 16.9282 26.3402 13.3089 32.5212 13.3089C41.3984 13.3089 48.6205 20.5554 48.6205 29.4625C48.6205 38.3696 41.3984 45.6161 32.5212 45.6161C25.3892 45.6161 19.0245 40.7548 17.0558 33.9378H21.6462C22.0271 33.9378 22.3358 33.628 22.3358 33.2458C22.3358 32.8636 22.0271 32.5539 21.6462 32.5539H16.2832C16.2081 32.54 16.1297 32.5412 16.0506 32.5539H8.98502C8.60412 32.5539 8.2954 32.8636 8.2954 33.2458C8.2954 33.628 8.60412 33.9378 8.98502 33.9378H15.6247C16.58 37.5585 18.6994 40.821 21.6413 43.1715C24.7313 45.6403 28.5952 47 32.5214 47C37.16 47 41.5409 45.1675 44.8573 41.84C48.1734 38.5124 50 34.117 50 29.4625C50 24.8081 48.1734 20.4126 44.8571 17.0851ZM44.0688 12.8366C44.8035 13.3467 45.5113 13.9116 46.1724 14.5154C46.833 15.1186 47.4599 15.7725 48.0355 16.4591C48.1721 16.6217 48.367 16.7054 48.5638 16.7054C48.7205 16.7054 48.878 16.6521 49.0074 16.5428C49.2989 16.2969 49.3364 15.8603 49.0911 15.5679C48.4759 14.8346 47.8063 14.136 47.1008 13.4918C46.3947 12.8469 45.6389 12.2436 44.8541 11.6985C44.541 11.4813 44.1114 11.5592 43.8946 11.8736C43.6778 12.1877 43.756 12.6188 44.0691 12.8363L44.0688 12.8366ZM27.3217 10.2425C27.7026 10.2425 28.0113 9.9327 28.0113 9.55052V7.42004C28.0113 6.29725 28.9216 5.38388 30.0404 5.38388H35.0811C36.1998 5.38388 37.1101 6.29725 37.1101 7.42004V9.55052C37.1101 9.9327 37.4189 10.2425 37.7998 10.2425C38.1807 10.2425 38.4894 9.9327 38.4894 9.55052V7.42004C38.4894 5.53426 36.9605 4 35.0811 4H30.0404C28.161 4 26.6321 5.53426 26.6321 7.42004V9.55052C26.6321 9.9327 26.9408 10.2425 27.3217 10.2425ZM5.80956 19.5613H14.2238C14.6047 19.5613 14.9134 19.2515 14.9134 18.8694C14.9134 18.4872 14.6047 18.1774 14.2238 18.1774H5.80956C5.42867 18.1774 5.11995 18.4872 5.11995 18.8694C5.11995 19.2515 5.42867 19.5613 5.80956 19.5613ZM20.9315 26.5098C21.3124 26.5098 21.6211 26.2 21.6211 25.8178C21.6211 25.4356 21.3124 25.1259 20.9315 25.1259H16.1416C16.1416 25.1259 16.14 25.1259 16.1391 25.1259H12.5172C12.1363 25.1259 11.8276 25.4356 11.8276 25.8178C11.8276 26.2 12.1363 26.5098 12.5172 26.5098H15.2932C15.1274 27.4847 15.0424 28.4742 15.0424 29.4625C15.0424 29.5799 15.0435 29.6975 15.0458 29.8147C15.0534 30.1923 15.3605 30.4928 15.7352 30.4928C15.7398 30.4928 15.7446 30.4928 15.7492 30.4928C16.1299 30.4854 16.4324 30.1694 16.4248 29.7873C16.4228 29.6789 16.4216 29.5709 16.4216 29.4625C16.4216 28.473 16.5184 27.4831 16.6986 26.5098H20.9315ZM5.96841 25.1259C5.58751 25.1259 5.27879 25.4356 5.27879 25.8178C5.27879 26.2 5.58751 26.5098 5.96841 26.5098H9.34201C9.72291 26.5098 10.0316 26.2 10.0316 25.8178C10.0316 25.4356 9.72291 25.1259 9.34201 25.1259H5.96841ZM14.9383 37.3726H10.4134C10.0325 37.3726 9.72383 37.6823 9.72383 38.0645C9.72383 38.4467 10.0325 38.7564 10.4134 38.7564H14.9383C15.3192 38.7564 15.6279 38.4467 15.6279 38.0645C15.6279 37.6823 15.3192 37.3726 14.9383 37.3726ZM7.19868 37.3726H3.706C3.3251 37.3726 3.01639 37.6823 3.01639 38.0645C3.01639 38.4467 3.3251 38.7564 3.706 38.7564H7.19868C7.57958 38.7564 7.8883 38.4467 7.8883 38.0645C7.8883 37.6823 7.57958 37.3726 7.19868 37.3726ZM3.36349 25.8178C3.36349 25.4356 3.05477 25.1259 2.67388 25.1259H0.689617C0.308719 25.1259 0 25.4356 0 25.8178C0 26.2 0.308719 26.5098 0.689617 26.5098H2.67411C3.055 26.5098 3.36372 26.2 3.36372 25.8178H3.36349ZM23.1183 36.4108L29.3322 31.3882C29.0175 30.8409 28.8345 30.2082 28.8345 29.5324C28.8345 27.4764 30.5015 25.8038 32.5506 25.8038C33.5094 25.8038 34.3818 26.1733 35.0417 26.7736L36.8908 25.279C37.1874 25.0389 37.6216 25.086 37.8604 25.3838C38.0993 25.6813 38.0526 26.117 37.7558 26.3566L35.875 27.8766C36.1233 28.3762 36.2665 28.9371 36.2665 29.5322C36.2665 31.5879 34.5995 33.2606 32.5504 33.2606C31.6725 33.2606 30.8661 32.952 30.2296 32.4392L23.9833 37.4881C23.8559 37.5912 23.7031 37.6413 23.5511 37.6413C23.3497 37.6413 23.1498 37.5532 23.0137 37.3834C22.7748 37.0859 22.8215 36.6504 23.1183 36.4108ZM30.2137 29.5324C30.2137 30.8252 31.262 31.8769 32.5506 31.8769C33.8393 31.8769 34.8875 30.8252 34.8875 29.5324C34.8875 28.2396 33.8393 27.1876 32.5506 27.1876C31.262 27.1876 30.2137 28.2396 30.2137 29.5324Z" fill="url(#paint0_linear_151_308)"/>
</g>
<defs>
<linearGradient id="paint0_linear_151_308" x1="0" y1="10.235" x2="50" y2="10.235" gradientUnits="userSpaceOnUse">
<stop stop-color="#B700C7"/>
<stop offset="0.46" stop-color="#DE3E63"/>
<stop offset="1" stop-color="#FF9440"/>
</linearGradient>
</defs>
</svg>
