<svg width="50" height="44" viewBox="0 0 50 44" fill="none" xmlns="http://www.w3.org/2000/svg">
<g id="icon" clip-path="url(#clip0_151_334)">
<path id="Vector" d="M49.282 18.1154C49.2712 18.1154 49.2611 18.118 49.2504 18.1185C49.2362 18.1176 49.2224 18.1154 49.208 18.1154H39.3733L37.7192 18.1286V0.803414C37.7192 0.787331 37.7168 0.771729 37.7156 0.755886C37.7161 0.743884 37.7192 0.732603 37.7192 0.720601C37.7192 0.322859 37.3977 0.000488281 37.0011 0.000488281H19.0049C18.8144 0.000488281 18.6317 0.0763401 18.4972 0.211481L12.2777 6.4491C12.2777 6.4491 12.2777 6.4491 12.2777 6.44934C12.2444 6.4827 12.2145 6.51967 12.1884 6.55903C12.1767 6.57656 12.1688 6.59552 12.1587 6.61376C12.1463 6.63656 12.1324 6.65865 12.1224 6.68289C12.1126 6.70666 12.107 6.73138 12.0999 6.75586C12.0939 6.77651 12.086 6.79595 12.0817 6.81731C12.0723 6.86388 12.0676 6.91117 12.0676 6.95869V24.329H2.45142L7.28678 19.48H9.73748C10.1341 19.48 10.4555 19.1576 10.4555 18.7599C10.4555 18.3622 10.1341 18.0398 9.73748 18.0398H6.98926C6.79898 18.0398 6.61612 18.1156 6.4816 18.2508L0.211107 24.539C0.177358 24.5726 0.1472 24.6099 0.120872 24.6497C0.109383 24.6667 0.101724 24.6852 0.0919105 24.7032C0.0792249 24.7265 0.0651032 24.7488 0.0550505 24.7736C0.0452372 24.7971 0.0397321 24.8218 0.0325516 24.846C0.0265679 24.8667 0.01843 24.8866 0.014361 24.908C0.00502635 24.9543 0 25.0016 0 25.0489V28.8204C0 29.2183 0.321447 29.5405 0.71805 29.5405C1.11465 29.5405 1.4361 29.2181 1.4361 28.8204V25.7688H18.0391V42.4194H1.4361V32.0529C1.4361 31.6552 1.11465 31.3328 0.71805 31.3328C0.321447 31.3328 0 31.6554 0 32.0532V43.1398C0 43.5375 0.321447 43.8599 0.71805 43.8599H18.7572C18.8043 43.8599 18.8512 43.8549 18.8976 43.8457C18.9197 43.8414 18.9403 43.833 18.9616 43.8268C18.985 43.8198 19.0087 43.8145 19.0314 43.8049C19.0573 43.7941 19.0808 43.7797 19.1049 43.766C19.1214 43.7567 19.1389 43.7495 19.1547 43.7389C19.1947 43.7123 19.2318 43.682 19.2655 43.6479L24.2553 38.6439V43.1395C24.2553 43.5373 24.5767 43.8597 24.9733 43.8597H43.0122C43.0593 43.8597 43.1062 43.8546 43.1527 43.8455C43.1747 43.8412 43.1953 43.8328 43.2166 43.8265C43.24 43.8196 43.2637 43.8143 43.2865 43.8047C43.3123 43.7939 43.3358 43.7795 43.36 43.7658C43.3765 43.7564 43.3939 43.7492 43.4097 43.7387C43.4497 43.712 43.4868 43.6818 43.5206 43.6477L49.7891 37.3611C49.9236 37.2262 49.9995 37.0431 49.9995 36.852V18.8353C49.9995 18.4375 49.6781 18.1152 49.2815 18.1152L49.282 18.1154ZM39.3791 19.5556H47.4744L42.7149 24.3288H32.5581L37.301 19.5724L39.3791 19.5556ZM36.2831 18.5563L31.5425 23.3105V7.29571L36.2831 2.54177V18.5563ZM13.5034 24.3288V7.67809H17.5173C17.9139 7.67809 18.2354 7.35572 18.2354 6.95797C18.2354 6.56023 17.9139 6.23786 17.5173 6.23786H14.519L19.3026 1.44047H35.3506L30.5667 6.23786H21.6088C21.2122 6.23786 20.8907 6.56023 20.8907 6.95797C20.8907 7.35572 21.2122 7.67809 21.6088 7.67809H30.1067V24.3285L13.5034 24.3288ZM19.475 41.4014V25.769H24.2553V36.6074L19.475 41.4014ZM25.6914 25.769H42.2941V42.4197H25.6914V25.769ZM43.7302 41.4014V25.347L48.5637 20.4997V36.5539L43.7302 41.4014ZM24.1246 18.3799L24.9733 20.1043C25.0985 20.3585 25.3532 20.5059 25.6176 20.5059C25.7244 20.5059 25.8328 20.4817 25.935 20.4313C26.2905 20.2553 26.4367 19.8235 26.261 19.4666L25.2507 17.4142C25.2304 17.3583 25.2057 17.3046 25.1727 17.2561L22.507 11.8408C22.3859 11.5953 22.1368 11.4397 21.8637 11.4395H21.8632C21.5903 11.4395 21.3409 11.5945 21.2198 11.8399L17.4522 19.4658C17.2761 19.8221 17.4216 20.2541 17.7768 20.431C18.1317 20.6077 18.563 20.462 18.7392 20.1055L19.5915 18.3802L24.1246 18.3799ZM21.8622 13.7839L23.4156 16.9397H20.3031L21.8622 13.7839ZM11.6075 31.1156C12.0041 31.1156 12.3256 30.7932 12.3256 30.3955C12.3256 29.9977 12.0041 29.6754 11.6075 29.6754H7.26835C6.87174 29.6754 6.55029 29.9977 6.55029 30.3955V38.2289C6.55029 38.6266 6.87174 38.949 7.26835 38.949H10.2748C11.7475 38.949 12.9455 37.7473 12.9455 36.2706C12.9455 34.7939 11.7475 33.5921 10.2748 33.5921H7.9864V31.1158H11.6075V31.1156ZM10.2748 35.032C10.9555 35.032 11.5094 35.5875 11.5094 36.2704C11.5094 36.9533 10.9555 37.5085 10.2748 37.5085H7.9864V35.032H10.2748ZM36.1605 34.0296C36.5289 33.5704 36.7496 32.9874 36.7496 32.3537C36.7496 30.877 35.5514 29.6754 34.0789 29.6754H31.6921C31.2955 29.6754 30.9741 29.9977 30.9741 30.3955V38.2289C30.9741 38.6266 31.2955 38.949 31.6921 38.949H34.6988C36.1713 38.949 37.3695 37.7473 37.3695 36.2706C37.3695 35.3345 36.8882 34.509 36.1605 34.0299V34.0296ZM32.4102 31.1153H34.0789C34.7599 31.1153 35.3135 31.6706 35.3135 32.3535C35.3135 33.0364 34.7599 33.5916 34.0789 33.5916H32.4102V31.1153ZM34.6988 37.5085H32.4102V35.032H34.6988C35.3798 35.032 35.9334 35.5875 35.9334 36.2704C35.9334 36.9533 35.3798 37.5085 34.6988 37.5085Z" fill="url(#paint0_linear_151_334)"/>
</g>
<defs>
<linearGradient id="paint0_linear_151_334" x1="0" y1="6.36012" x2="49.9995" y2="6.36012" gradientUnits="userSpaceOnUse">
<stop stop-color="#B700C7"/>
<stop offset="0.46" stop-color="#DE3E63"/>
<stop offset="1" stop-color="#FF9440"/>
</linearGradient>
<clipPath id="clip0_151_334">
<rect width="50" height="43.8596" fill="white"/>
</clipPath>
</defs>
</svg>
