<svg width="50" height="50" viewBox="0 0 50 50" fill="none" xmlns="http://www.w3.org/2000/svg">
<g id="icon">
<path id="Vector" d="M24.673 47C24.4608 47 24.2574 46.9158 24.1075 46.7657L17.9072 40.5654C17.5969 41.7241 16.9874 42.786 16.1204 43.653C14.8151 44.9583 13.0797 45.6771 11.2337 45.6771C9.38771 45.6771 7.65235 44.9586 6.34702 43.653C5.0417 42.3477 4.32292 40.6123 4.32292 38.7663C4.32292 36.9203 5.0417 35.1847 6.34702 33.8797C7.21404 33.0127 8.27595 32.4032 9.43464 32.0929L3.23435 25.8929C2.92188 25.5807 2.92188 25.0742 3.23435 24.762L11.0631 16.9333C11.2894 16.7067 11.6291 16.6373 11.9261 16.7562C12.2234 16.8754 12.4209 17.1602 12.4284 17.4801C12.4607 18.8523 13.012 20.1416 13.9809 21.1108C14.9841 22.1137 16.3177 22.6661 17.7363 22.6661C19.155 22.6661 20.4886 22.1137 21.4918 21.1108C22.4951 20.1075 23.0472 18.7739 23.0472 17.3553C23.0472 15.9367 22.4951 14.6029 21.4918 13.5999C20.5229 12.631 19.2336 12.0797 17.8614 12.0474C17.5414 12.0399 17.2567 11.8424 17.1375 11.5454C17.0186 11.2481 17.0882 10.9087 17.3146 10.6824L24.7621 3.23415C25.0745 2.92195 25.5805 2.92195 25.893 3.23415L32.0797 9.42052C32.3932 8.27624 32.999 7.22767 33.8553 6.37133C35.1606 5.06601 36.896 4.34724 38.7418 4.34724C40.5875 4.34724 42.3234 5.06601 43.6285 6.37133C44.9338 7.67664 45.6528 9.41199 45.6528 11.258C45.6528 13.104 44.934 14.8393 43.6285 16.1446C42.7721 17.001 41.7233 17.6067 40.5792 17.9205L46.7657 24.1072C47.0781 24.4194 47.0781 24.9259 46.7657 25.2381L39.1993 32.8045C38.9692 33.0348 38.622 33.1023 38.3218 32.9756C38.0219 32.8484 37.8289 32.5525 37.8339 32.2267C37.8566 30.7758 37.305 29.4127 36.2807 28.3884C35.2774 27.3854 33.9436 26.833 32.5252 26.833C31.1068 26.833 29.7727 27.3854 28.7695 28.3884C27.7662 29.3916 27.2138 30.7252 27.2138 32.1438C27.2138 33.5624 27.7662 34.8963 28.7695 35.8992C29.7938 36.9233 31.1522 37.4762 32.6079 37.4528C32.9419 37.445 33.2299 37.6407 33.3568 37.9407C33.4839 38.2406 33.4162 38.5877 33.1856 38.8181L25.238 46.7657C25.0881 46.9155 24.8847 47 24.6725 47H24.673ZM17.342 38.0694C17.5502 38.0694 17.7547 38.1507 17.9078 38.3038L24.673 45.069L30.8829 38.8589C29.6653 38.5645 28.5492 37.9409 27.6388 37.0302C24.9444 34.3359 24.9444 29.9515 27.6388 27.2571C30.3331 24.5623 34.7181 24.5628 37.4119 27.2571C38.3224 28.1676 38.946 29.2836 39.2406 30.5012L45.0692 24.6726L38.3274 17.9309C38.1011 17.7048 38.0315 17.3654 38.1504 17.0684C38.2691 16.7714 38.5535 16.5736 38.8732 16.5659C40.243 16.5323 41.5302 15.981 42.4975 15.0137C44.5682 12.9427 44.5682 9.57356 42.4975 7.50254C40.4262 5.43153 37.057 5.43207 34.9863 7.50254C34.0193 8.4698 33.4682 9.75672 33.4343 11.1265C33.4266 11.4465 33.2288 11.7307 32.9318 11.8496C32.6342 11.9685 32.2951 11.8986 32.0693 11.6723L25.3275 4.93058L19.5677 10.6904C20.7141 11.0036 21.7648 11.6099 22.6225 12.4679C25.3169 15.1622 25.3169 19.5466 22.6225 22.2409C21.3172 23.5462 19.5821 24.265 17.7361 24.265C15.8901 24.265 14.1547 23.5462 12.8494 22.2409C11.9914 21.383 11.3849 20.3323 11.0719 19.1858L4.93106 25.3269L11.6963 32.0921C11.9234 32.319 11.9928 32.6597 11.8723 32.9575C11.7517 33.255 11.4651 33.4518 11.1441 33.4574C9.75857 33.4806 8.45671 34.0322 7.47825 35.0106C5.40749 37.0814 5.40749 40.4508 7.47825 42.5218C9.54928 44.5928 12.9184 44.5928 14.9895 42.5218C15.9676 41.5433 16.5193 40.2412 16.5427 38.8557C16.5481 38.5347 16.7448 38.2481 17.0426 38.1276C17.1399 38.0884 17.2415 38.0692 17.3426 38.0692L17.342 38.0694Z" fill="url(#paint0_linear_151_302)"/>
</g>
<defs>
<linearGradient id="paint0_linear_151_302" x1="3" y1="9.38001" x2="47" y2="9.38001" gradientUnits="userSpaceOnUse">
<stop stop-color="#B700C7"/>
<stop offset="0.46" stop-color="#DE3E63"/>
<stop offset="1" stop-color="#FF9440"/>
</linearGradient>
</defs>
</svg>
