<svg width="50" height="44" viewBox="0 0 50 44" fill="none" xmlns="http://www.w3.org/2000/svg">
<g id="icon" clip-path="url(#clip0_151_340)">
<path id="Vector" d="M6.0315 21.1815C6.83753 18.5521 8.323 16.0868 10.3277 14.0528C12.1881 12.1654 14.4225 10.6843 16.9697 9.65071C17.349 9.49666 17.7804 9.67989 17.9339 10.0597C18.0875 10.4392 17.9046 10.8717 17.5257 11.0255C15.1664 11.9829 13.099 13.352 11.3815 15.095C9.54389 16.9597 8.18356 19.215 7.44712 21.6169C7.34939 21.9359 7.05644 22.1411 6.73956 22.1411C6.66749 22.1411 6.59444 22.1305 6.52188 22.1082C6.13121 21.9881 5.91156 21.5732 6.0315 21.1815ZM45.4968 19.7001C44.8507 19.7001 44.2258 19.866 43.6503 20.186C41.9726 15.7461 38.4246 12.0546 33.7804 9.96078C33.4075 9.7914 32.9692 9.95905 32.8014 10.3327C32.6336 10.7065 32.7999 11.1454 33.1728 11.3136C37.7637 13.3834 41.1882 17.1305 42.5683 21.5944C42.6438 21.8385 42.8393 22.0264 43.0858 22.0919C43.3326 22.1577 43.5952 22.0912 43.7813 21.9166C44.2927 21.4374 44.886 21.1837 45.4965 21.1837C47.1629 21.1837 48.5188 23.0068 48.5188 25.248C48.5188 27.4893 47.1632 29.3121 45.4965 29.3121C44.9842 29.3121 44.4931 29.138 44.0365 28.7946C43.8361 28.6437 43.5728 28.6044 43.3371 28.6915C43.1016 28.778 42.9257 28.9781 42.8701 29.2231C41.1394 36.8446 33.6294 42.3762 25.0128 42.3762C16.3962 42.3762 8.88297 36.8577 7.15862 29.2545C7.0752 28.8863 6.72746 28.6435 6.35406 28.685C6.20031 28.7021 6.0621 28.7664 5.95253 28.8621C5.50681 29.1927 5.00656 29.3673 4.50236 29.3673C2.86413 29.3673 1.4801 27.5063 1.4801 25.3032C1.4801 23.6828 2.23406 22.1735 3.35624 21.5474C3.7136 21.3479 3.84193 20.8964 3.64302 20.5384C3.4441 20.1806 2.99345 20.0522 2.63584 20.2513C1.03414 21.1449 -0.000671387 23.128 -0.000671387 25.3034C-0.000671387 28.3624 2.01935 30.8511 4.50236 30.8511C5.0036 30.8511 5.49768 30.7495 5.96585 30.5524C8.23341 38.3205 16.0741 43.86 25.0128 43.86C33.9515 43.86 41.7986 38.3012 44.0666 30.5084C44.5257 30.698 45.0084 30.7957 45.4965 30.7957C47.9796 30.7957 49.9996 28.3072 49.9996 25.248C49.9996 22.1889 47.9798 19.7001 45.4968 19.7001ZM24.9545 36.399C27.7367 36.399 30.2095 35.3756 31.408 33.728C31.6489 33.397 31.5763 32.9331 31.2458 32.6918C30.9154 32.4504 30.4521 32.5234 30.2115 32.8545C29.3147 34.0871 27.2023 34.9154 24.9548 34.9154C22.6811 34.9154 20.6208 34.1108 19.7059 32.8653C19.4636 32.5352 19.0003 32.4643 18.6709 32.7076C18.3417 32.9501 18.2711 33.4145 18.5134 33.7446C19.7161 35.3818 22.1843 36.3988 24.9548 36.3988L24.9545 36.399ZM22.7381 10.3663C23.5389 10.3965 26.1821 10.1902 26.5387 6.29876C26.5762 5.89077 26.2764 5.52976 25.8692 5.49218C25.4612 5.45361 25.1016 5.75478 25.0641 6.16301C24.8524 8.47347 23.7124 8.91905 22.7926 8.88369C22.4841 8.87231 21.4651 8.65497 20.8484 7.83602C20.2839 7.08631 20.1709 6.00254 20.512 4.61537C21.3723 1.11556 24.4955 1.47039 24.8603 1.52256C24.8807 1.52553 26.9375 1.83016 28.117 3.52864C28.9943 4.79192 29.1977 6.53095 28.7216 8.69676C28.2559 10.8151 27.329 12.3306 25.9664 13.2007C24.015 14.4469 21.7684 13.9655 21.7484 13.9611C21.3498 13.8701 20.9527 14.1188 20.8612 14.5179C20.7696 14.9172 21.0186 15.3153 21.417 15.4071C21.4678 15.4187 22.0266 15.5426 22.8484 15.5426C23.8908 15.5426 25.3561 15.3433 26.7438 14.4638C28.4603 13.3758 29.6121 11.543 30.1676 9.01622C30.7384 6.41968 30.4531 4.28206 29.3196 2.6632C27.7571 0.430634 25.1655 0.0661626 25.0735 0.0542939C23.4192 -0.203358 20.0371 0.34409 19.0744 4.2603C18.6218 6.10219 18.8209 7.60557 19.6665 8.72915C20.5971 9.96597 22.0349 10.3403 22.7381 10.3663ZM20.475 24.6316C20.475 23.8062 19.8071 23.1374 18.9836 23.1374C18.16 23.1374 17.4922 23.8065 17.4922 24.6316C17.4922 25.4567 18.16 26.1258 18.9836 26.1258C19.8071 26.1258 20.475 25.4567 20.475 24.6316ZM29.7123 24.6316C29.7123 25.457 30.3801 26.1258 31.2036 26.1258C32.0272 26.1258 32.695 25.4567 32.695 24.6316C32.695 23.8065 32.0272 23.1374 31.2036 23.1374C30.3801 23.1374 29.7123 23.8065 29.7123 24.6316Z" fill="url(#paint0_linear_151_340)"/>
</g>
<defs>
<linearGradient id="paint0_linear_151_340" x1="-0.000671387" y1="6.35993" x2="49.9996" y2="6.35993" gradientUnits="userSpaceOnUse">
<stop stop-color="#B700C7"/>
<stop offset="0.46" stop-color="#DE3E63"/>
<stop offset="1" stop-color="#FF9440"/>
</linearGradient>
<clipPath id="clip0_151_340">
<rect width="50" height="43.8596" fill="white"/>
</clipPath>
</defs>
</svg>
