<svg width="1920" height="1920" viewBox="0 0 1920 1920" fill="none" xmlns="http://www.w3.org/2000/svg">
<g filter="url(#filter0_f_39_50)">
<ellipse cx="1224.5" cy="601" rx="304.5" ry="192" fill="#FFF4FB" fill-opacity="0.32"/>
</g>
<g filter="url(#filter1_f_39_50)">
<circle cx="1733.5" cy="337.5" r="336.5" fill="#FFF0F2" fill-opacity="0.75"/>
</g>
<g filter="url(#filter2_f_39_50)">
<path d="M816 165C816 336.208 592.814 475 317.5 475C42.1861 475 -181 336.208 -181 165C-181 -6.20827 42.1861 -145 317.5 -145C592.814 -145 816 -6.20827 816 165Z" fill="#FCFBF1"/>
</g>
<circle cx="153" cy="-135" r="316" stroke="white" stroke-width="2"/>
<circle cx="153" cy="-135" r="377" stroke="white" stroke-width="2"/>
<circle cx="153" cy="-135" r="441" stroke="white" stroke-width="2"/>
<circle cx="153" cy="-135" r="510" stroke="white" stroke-width="2"/>
<circle cx="153" cy="-135" r="582" stroke="white" stroke-width="2"/>
<circle cx="153" cy="-135" r="655" stroke="white" stroke-width="2"/>
<circle cx="1423" cy="125" r="316" stroke="white" stroke-width="2"/>
<circle cx="1423" cy="125" r="377" stroke="white" stroke-width="2"/>
<circle cx="1423" cy="125" r="441" stroke="white" stroke-width="2"/>
<circle cx="1423" cy="125" r="510" stroke="white" stroke-width="2"/>
<circle cx="1423" cy="125" r="582" stroke="white" stroke-width="2"/>
<circle cx="1423" cy="125" r="655" stroke="white" stroke-width="2"/>
<circle cx="623" cy="1264" r="316" stroke="white" stroke-width="2"/>
<circle cx="623" cy="1264" r="377" stroke="white" stroke-width="2"/>
<circle cx="623" cy="1264" r="441" stroke="white" stroke-width="2"/>
<circle cx="623" cy="1264" r="510" stroke="white" stroke-width="2"/>
<circle cx="623" cy="1264" r="582" stroke="white" stroke-width="2"/>
<circle cx="623" cy="1264" r="655" stroke="white" stroke-width="2"/>
<defs>
<filter id="filter0_f_39_50" x="620" y="109" width="1209" height="984" filterUnits="userSpaceOnUse" color-interpolation-filters="sRGB">
<feFlood flood-opacity="0" result="BackgroundImageFix"/>
<feBlend mode="normal" in="SourceGraphic" in2="BackgroundImageFix" result="shape"/>
<feGaussianBlur stdDeviation="150" result="effect1_foregroundBlur_39_50"/>
</filter>
<filter id="filter1_f_39_50" x="1097" y="-299" width="1273" height="1273" filterUnits="userSpaceOnUse" color-interpolation-filters="sRGB">
<feFlood flood-opacity="0" result="BackgroundImageFix"/>
<feBlend mode="normal" in="SourceGraphic" in2="BackgroundImageFix" result="shape"/>
<feGaussianBlur stdDeviation="150" result="effect1_foregroundBlur_39_50"/>
</filter>
<filter id="filter2_f_39_50" x="-481" y="-445" width="1597" height="1220" filterUnits="userSpaceOnUse" color-interpolation-filters="sRGB">
<feFlood flood-opacity="0" result="BackgroundImageFix"/>
<feBlend mode="normal" in="SourceGraphic" in2="BackgroundImageFix" result="shape"/>
<feGaussianBlur stdDeviation="150" result="effect1_foregroundBlur_39_50"/>
</filter>
</defs>
</svg>
